<?xml version="1.0" encoding="utf-8" standalone="yes"?>
<!DOCTYPE svg PUBLIC "-//W3C//DTD SVG 1.1//EN" "http://www.w3.org/Graphics/SVG/1.1/DTD/svg11.dtd">
<svg width="782" height="462" viewBox="0 0 782 462" style="fill:none;stroke:none;fill-rule:evenodd;clip-rule:evenodd;stroke-linecap:round;stroke-linejoin:round;stroke-miterlimit:1.5;" version="1.1" xmlns="http://www.w3.org/2000/svg" xmlns:xlink="http://www.w3.org/1999/xlink"><style class="text-font-style fontImports" data-font-family="Shantell Sans">@import url('https://fonts.googleapis.com/css2?family=Shantell+Sans:wght@300..800&amp;display=block');</style><g id="items" style="isolation: isolate"><g id="blend" style="mix-blend-mode: normal"><g id="g-root-5.cu_sy_m7zqbha0uej2-fill" data-item-order="-94074" transform="translate(255, 263.97613525390625)"><g id="5.cu_sy_m7zqbha0uej2-fill" stroke="none" fill="#54502f"><g><path d="M 241.963437 10.4347C 241.864637 10.2874 241.761037 10.1449 241.659837 10C 238.268437 20.4897 231.266037 29.3658 222.101437 35.1743C 225.270637 40.278 225.603837 46.9019 222.397637 52.4746C 218.371937 59.4768 210.076137 62.5272 202.641737 60.2381C 195.244437 73.1864 179.171137 79.464 164.630737 74.2081C 167.454437 83.7473 176.014337 90.6807 186.136537 90.6807C 192.613237 90.6807 198.448237 87.8415 202.552937 83.3003C 207.602937 83.2512 212.425837 82.4898 212.425837 82.4898C 219.112337 81.1292 225.282937 78.3538 230.609437 74.4954C 242.360737 65.9828 250.000037 52.1873 250.000037 36.616C 250.000037 26.9172 247.038137 17.9084 241.963437 10.4347ZM 149.362253 77.216786C 154.812153 78.471786 160.402653 77.189786 164.633253 74.208186C 167.456953 83.747386 176.016853 90.680786 186.139053 90.680786C 192.615753 90.680786 198.450753 87.841586 202.555453 83.300386C 207.605453 83.251286 212.428453 82.489886 212.428453 82.489886C 219.114853 81.129286 225.285453 78.353886 230.611953 74.495486C 231.063653 76.740286 231.303053 79.063686 231.303053 81.441186C 231.303053 100.863486 215.479153 116.611586 195.957753 116.611586C 193.906653 116.611586 191.897553 116.434786 189.942653 116.103186C 189.942653 116.159686 189.942653 116.213686 189.942653 116.267686C 189.942653 134.358886 175.204753 149.023886 157.023653 149.023886C 148.446453 149.023886 140.634453 145.757286 134.774853 140.408086L 134.774853 58.850586C 134.710653 67.427086 140.612253 75.205286 149.359753 77.216786L 149.362253 77.216786ZM 57.3583 60.238222C 49.9239 62.524822 41.6281 59.474422 37.6024 52.474722C 34.3986 46.902022 34.7318 40.278122 37.8986 35.174422C 28.734 29.368422 21.7316 20.489822 18.3402 10.000122C 18.239 10.145022 18.1353 10.287522 18.0366 10.434822C 12.9619 17.908522 10 26.917322 10 36.616122C 10 52.187422 17.6392 65.982922 29.3906 74.495522C 34.717 78.353922 40.8876 81.126822 47.5741 82.489922C 47.5741 82.489922 52.3971 83.251322 57.4471 83.300422C 61.5518 87.844122 67.3867 90.680822 73.8634 90.680822C 83.9857 90.680822 92.5456 83.747422 95.3693 74.208222C 80.8288 79.466522 64.7556 73.186522 57.3583 60.238222ZM 110.640363 77.216786C 105.190463 78.471786 99.599863 77.189786 95.369263 74.208186C 92.545563 83.747386 83.985763 90.680786 73.863463 90.680786C 67.386763 90.680786 61.551863 87.841586 57.447163 83.300386C 52.397063 83.251286 47.574163 82.489886 47.574163 82.489886C 40.887663 81.129286 34.717063 78.353886 29.390563 74.495486C 28.938863 76.740286 28.699463 79.063686 28.699463 81.441186C 28.699463 100.863486 44.523363 116.611586 64.044763 116.611586C 66.095863 116.611586 68.105063 116.434786 70.059863 116.103186C 70.059863 116.159686 70.059863 116.213686 70.059863 116.267686C 70.059863 134.358886 84.797763 149.023886 102.978863 149.023886C 111.556063 149.023886 119.368063 145.757286 125.227663 140.408086L 125.227663 58.850586C 125.291863 67.427086 119.390263 75.205286 110.642763 77.216786L 110.640363 77.216786Z"></path></g></g></g><g id="g-root-5.line_sy_8x5p19a0ucy7-fill" data-item-order="-94069" transform="translate(207, 374.99993896484375)"></g><g id="g-root-4.cu_sy_1iosda0ueio-fill" data-item-order="-94066" transform="translate(379.7791748046875, 174.959716796875)"><g id="4.cu_sy_1iosda0ueio-fill" stroke="none" fill="#68403f"><g><path d="M 105.45268 44.355C 105.45268 29.3978 96.91498 16.4274 84.42808 10C 84.42808 19.5171 80.98248 28.9778 75.25118 35.7147C 71.08728 37.0336 67.40958 39.8948 65.16348 44.0185C 63.93428 46.2732 63.25798 48.6776 63.08768 51.0796L 63.04568 53.6928C 62.97658 57.7993 61.93988 61.9525 59.83698 65.8134C 52.85428 78.6338 36.74648 83.3936 23.86228 76.4455C 15.41838 71.892 10.45478 63.4384 10.00058 54.5451L 10.00058 107.6543C 14.25088 110.049 19.16518 111.417 24.40038 111.417C 26.10838 111.417 27.78178 111.272 29.40838 110.992L 29.41828 110.992C 31.70138 118.623 38.80748 124.191 47.22178 124.191C 57.47978 124.191 65.79288 115.916 65.79288 105.7116C 65.79288 104.0022 65.55838 102.3468 65.12398 100.775L 65.16588 100.7627C 77.58858 100.7627 87.65908 90.7421 87.65908 78.3809C 87.65908 77.8774 87.60968 76.8827 87.60968 76.8827C 96.54228 71.1601 102.96468 61.8935 104.87018 51.0821C 105.25518 48.8986 105.45758 46.6514 105.45758 44.3599L 105.45268 44.355ZM 77.865031 149.254771C 85.299331 151.541271 93.595131 148.490971 97.620831 141.491271C 100.824631 135.918471 100.491431 129.294571 97.324731 124.190971C 106.489331 118.384871 113.492031 109.506271 116.883031 99.016571C 118.344031 94.492571 119.141031 89.671371 119.141031 84.663571C 119.141031 71.489371 113.672031 59.587471 104.870131 51.077271C 102.964631 61.891171 96.542231 71.155371 87.609631 76.877871C 87.641731 77.373971 87.659031 77.872571 87.659031 78.376071C 87.659031 90.737271 77.588531 100.757971 65.165831 100.757971L 65.123931 100.770171C 65.560831 102.342071 65.792831 103.997471 65.792831 105.706871C 65.792831 115.914071 57.477331 124.185971 47.221731 124.185971C 38.807431 124.185971 31.701431 118.618171 29.418231 110.984871L 29.408331 110.984871C 27.781831 111.267271 26.108331 111.412171 24.400331 111.412171C 19.165131 111.412171 14.253331 110.044171 10.000531 107.649571L 10.000531 147.862171C 9.936331 156.438271 15.837931 164.217271 24.585431 166.228271C 30.035331 167.483271 35.625931 166.201271 39.856431 163.219271C 54.396931 168.478271 70.470131 162.198271 77.867531 149.249871L 77.865031 149.254771Z"></path></g></g></g><g id="g-root-4.line_sy_1q7m7lpa0ubyh-fill" data-item-order="-94061" transform="translate(503, 267)"></g><g id="g-root-3.cu_sy_1lrsph9a0ucqq-fill" data-item-order="-94058" transform="translate(261.0841979980469, 174.962158203125)"><g id="3.cu_sy_1lrsph9a0ucqq-fill" stroke="none" fill="#3b5649"><g><path d="M 105.276862 76.4431C 92.392562 83.3912 76.284862 78.6314 69.302162 65.8109C 67.199162 61.95 66.162562 57.7969 66.093462 53.6904L 66.051462 51.0772C 65.881162 48.6752 65.202362 46.2707 63.975662 44.0161C 61.729562 39.8899 58.051862 37.0311 53.887962 35.7122C 48.156662 28.9778 44.710962 19.5147 44.710962 10C 32.221662 16.4274 23.686462 29.4002 23.686462 44.355C 23.686462 46.6489 23.888862 48.8937 24.273862 51.0772C 26.179362 61.8911 32.601762 71.1552 41.534362 76.8778C 41.534362 76.8778 41.484962 77.8725 41.484962 78.376C 41.484962 90.7372 51.555462 100.7578 63.978162 100.7578L 64.020062 100.7701C 63.583262 102.3419 63.351162 103.9973 63.351162 105.7067C 63.351162 115.914 71.666762 124.186 81.922262 124.186C 90.336562 124.186 97.442662 118.618 99.725762 110.985L 99.735662 110.985C 101.362162 111.267 103.035662 111.412 104.743662 111.412C 109.978862 111.412 114.890662 110.044 119.143462 107.6494L 119.143462 54.5402C 118.689262 63.4335 113.725662 71.8871 105.281762 76.4406L 105.276862 76.4431ZM 104.7412 111.414612C 103.0332 111.414612 101.3597 111.269712 99.7331 110.989712L 99.7233 110.989712C 97.4401 118.620612 90.3341 124.188412 81.9198 124.188412C 71.6618 124.188412 63.3487 115.914112 63.3487 105.709312C 63.3487 103.999912 63.5832 102.344512 64.0176 100.772612L 63.9756 100.760312C 51.5529 100.760312 41.4825 90.739712 41.4825 78.378512C 41.4825 77.875012 41.4998 77.376512 41.5319 76.880312C 32.5993 71.157812 26.1769 61.891212 24.2714 51.079712C 15.4696 59.587412 10 71.489312 10 84.666012C 10 89.673812 10.7948 94.495012 12.2585 99.019012C 15.6498 109.508712 22.6522 118.384812 31.8168 124.193412C 28.6476 129.297012 28.3144 135.920912 31.5206 141.493712C 35.5464 148.495812 43.8421 151.545712 51.2765 149.257212C 58.6738 162.205712 74.7471 168.482712 89.2875 163.226712C 93.5181 166.208712 99.1087 167.490712 104.5586 166.235712C 113.306 164.221712 119.208 156.443712 119.143 147.869512L 119.143 107.656912C 114.893 110.051512 109.9788 111.419512 104.7437 111.419512L 104.7412 111.414612Z"></path></g></g></g><g id="g-root-3.line_sy_1cw5p8da0udjf-fill" data-item-order="-94053" transform="translate(206.99996948242188, 267)"></g><g id="g-root-2.cu_sy_zlbny5a0ubyk-fill" data-item-order="-94050" transform="translate(379.77484130859375, 123)"><g id="2.cu_sy_zlbny5a0ubyk-fill" stroke="none" fill="#344e57"><g><path d="M 23.8642 128.405316C 36.7484 135.353516 52.8562 130.593716 59.8389 117.773216C 61.9418 113.912316 62.9785 109.759116 63.0476 105.652616L 63.0895 103.039416C 63.2598 100.637416 63.9386 98.233016 65.1653 95.978316C 67.4114 91.852216 71.0891 88.993416 75.2531 87.674516C 80.9843 80.940016 84.43 71.476916 84.43 61.962316C 84.4029 60.577116 84.3017 59.209116 84.1338 57.860716C 81.2682 56.310916 77.9681 55.424316 74.478 55.424316C 69.6576 55.424316 65.2468 57.096916 61.7715 59.896716C 62.8156 63.035616 62.8131 66.540316 61.5173 69.863316C 59.481 75.087316 54.7864 78.501216 49.5685 79.169216L 46.5918 79.346116C 40.7741 79.847116 35.4624 83.550816 33.2089 89.332316C 31.7181 93.156316 31.8341 97.203916 33.2262 100.743016C 30.2396 99.129416 26.8878 98.186316 23.2496 98.186316C 18.2291 98.186316 13.6185 99.932516 10 102.850316L 10 106.504916C 10.4542 115.398216 15.4178 123.851916 23.8617 128.405316L 23.8642 128.405316ZM 61.7715 59.8943C 62.8156 63.0331 62.8131 66.5379 61.5173 69.8609C 59.481 75.0849 54.7864 78.4988 49.5685 79.1668L 46.5918 79.3436C 40.7741 79.8447 35.4624 83.5484 33.2089 89.3299C 31.7181 93.1539 31.8341 97.2015 33.2262 100.7406C 30.2396 99.127 26.8878 98.1839 23.2496 98.1839C 18.2291 98.1839 13.6185 99.9301 10 102.8479L 10 33.8284C 10 20.6666 20.7221 10 33.9469 10C 44.2568 10 53.0462 16.4839 56.4203 25.5786C 71.0941 29.8104 82.1888 42.4196 84.1313 57.8607C 81.2657 56.311 77.9657 55.4243 74.4756 55.4243C 69.6551 55.4243 65.2443 57.0969 61.769 59.8968L 61.7715 59.8943Z"></path></g></g></g><g id="g-root-2.line_sy_v5i5tpa0ucqt-fill" data-item-order="-94045" transform="translate(471, 159)"></g><g id="g-root-1.cu_sy_m9v5kta0udji-fill" data-item-order="-94042" transform="translate(295.792724609375, 123)"><g id="1.cu_sy_m9v5kta0udji-fill" stroke="none" fill="#69425a"><g><path d="M 32.660947 59.8943C 31.616947 63.0331 31.619347 66.5379 32.915247 69.8609C 34.951547 75.0849 39.646147 78.4988 44.864047 79.1668L 47.840747 79.3436C 53.658347 79.8447 58.970047 83.5484 61.223547 89.3299C 62.714347 93.1539 62.598347 97.2015 61.206247 100.7406C 64.192847 99.127 67.544747 98.1839 71.182947 98.1839C 76.203347 98.1839 80.814047 99.9301 84.432447 102.8479L 84.432447 33.8284C 84.432447 20.6666 73.710447 10 60.485547 10C 50.175647 10 41.386247 16.4839 38.012147 25.5786C 23.338447 29.8104 12.243647 42.4196 10.301147 57.8607C 13.166747 56.311 16.466847 55.4243 19.956947 55.4243C 24.777447 55.4243 29.188147 57.0969 32.663447 59.8968L 32.660947 59.8943ZM 19.1794 87.674516C 23.3433 88.993416 27.021 91.854616 29.2671 95.978316C 30.4963 98.233016 31.1726 100.637416 31.3429 103.039416L 31.3849 105.652616C 31.454 109.759116 32.4882 113.912316 34.5936 117.773216C 41.5763 130.593716 57.6841 135.353516 70.5683 128.405316C 79.0122 123.851916 83.9758 115.398216 84.43 106.504916L 84.43 102.850316C 80.8116 99.932516 76.2009 98.186316 71.1805 98.186316C 67.5447 98.186316 64.1904 99.129416 61.2038 100.743016C 62.5959 97.203916 62.7094 93.153916 61.2211 89.332316C 58.9676 83.550816 53.6559 79.847116 47.8382 79.346116L 44.8615 79.169216C 39.6437 78.501216 34.949 75.087316 32.9127 69.863316C 31.6169 66.540316 31.6144 63.035616 32.6585 59.896716C 29.1832 57.096916 24.7725 55.424316 19.952 55.424316C 16.4619 55.424316 13.1618 56.313416 10.2962 57.860716C 10.1259 59.206616 10.0272 60.574616 10 61.962316C 10 71.479416 13.4457 80.940016 19.1769 87.676916L 19.1794 87.674516Z"></path></g></g></g><g id="g-root-1.line_sy_hu1ngda0uebr-fill" data-item-order="-94037" transform="translate(207, 159)"></g><g id="g-root-tx_componen_hu1ngda0uebs-fill" data-item-order="0" transform="translate(231, 39)"><g id="tx_componen_hu1ngda0uebs-fill" stroke="none" fill="#f4f4f4"><g><text style="font: 20px &quot;Shantell Sans&quot;, cursive; white-space: pre;" font-size="20px" font-family="'Shantell Sans', cursive"><tspan x="11.91" y="35.6" dominant-baseline="ideographic">A platform for every learners</tspan></text></g></g></g><g id="g-root-tx_userinte_18lx8n1aavdvl-fill" data-item-order="0" transform="translate(3, 147)"><g id="tx_userinte_18lx8n1aavdvl-fill" stroke="none" fill="#dd57a8"><g><text style="font: 20px &quot;Shantell Sans&quot;, cursive; white-space: pre;" font-size="20px" font-family="'Shantell Sans', cursive"><tspan x="11.93" y="35.6" dominant-baseline="ideographic">User Interface</tspan></text></g></g></g><g id="g-root-shap_4j7m65a0ucqx-fill" data-item-order="0" transform="translate(159, 141)"></g><g id="g-root-exch_1cws9h9a1cnwp-fill" data-item-order="0" transform="translate(555, 141)"></g><g id="g-root-tx_accessib_1unehh9aawsnc-fill" data-item-order="0" transform="translate(603, 147)"><g id="tx_accessib_1unehh9aawsnc-fill" stroke="none" fill="#1fa9d7"><g><text style="font: 20px &quot;Shantell Sans&quot;, cursive; white-space: pre;" font-size="20px" font-family="'Shantell Sans', cursive"><tspan x="12" y="35.6" dominant-baseline="ideographic">Accessibility</tspan></text></g></g></g><g id="g-root-tx_searchfu_1hit725aavehb-fill" data-item-order="0" transform="translate(15, 243)"><g id="tx_searchfu_1hit725aavehb-fill" stroke="none" fill="#3bc482"><g><text style="font: 20px &quot;Shantell Sans&quot;, cursive; white-space: pre;" font-size="20px" font-family="'Shantell Sans', cursive"><tspan x="75.31" y="35.6" dominant-baseline="ideographic">Search </tspan><tspan x="14.88" y="59.6" dominant-baseline="ideographic">Functionality</tspan></text></g></g></g><g id="g-root-text_zrket9a15ki0-fill" data-item-order="0" transform="translate(159, 249)"></g><g id="g-root-spar_qqxp19a12ubr-fill" data-item-order="0" transform="translate(555, 249)"></g><g id="g-root-tx_contentq_zk1hj1aawr9h-fill" data-item-order="0" transform="translate(603, 255)"><g id="tx_contentq_zk1hj1aawr9h-fill" stroke="none" fill="#e45752"><g><text style="font: 20px &quot;Shantell Sans&quot;, cursive; white-space: pre;" font-size="20px" font-family="'Shantell Sans', cursive"><tspan x="12" y="35.6" dominant-baseline="ideographic">Content Quality</tspan></text></g></g></g><g id="g-root-tx_reliabil_8vvim5aaws96-fill" data-item-order="0" transform="translate(39, 363)"><g id="tx_reliabil_8vvim5aaws96-fill" stroke="none" fill="#f0d80d"><g><text style="font: 20px &quot;Shantell Sans&quot;, cursive; white-space: pre;" font-size="20px" font-family="'Shantell Sans', cursive"><tspan x="19.59" y="35.6" dominant-baseline="ideographic">Reliability</tspan></text></g></g></g><g id="g-root-star_4otvy5a18g0e-fill" data-item-order="0" transform="translate(159, 357)"></g><g id="g-root-5.cu_sy_m7zqbha0uej2-stroke" data-item-order="-94074" transform="translate(255, 263.97613525390625)"><g id="5.cu_sy_m7zqbha0uej2-stroke" fill="none" stroke-linecap="round" stroke-linejoin="round" stroke-miterlimit="4" stroke="#ffe711" stroke-width="2"><g><path d="M 241.963437 10.4347C 241.864637 10.2874 241.761037 10.1449 241.659837 10C 238.268437 20.4897 231.266037 29.3658 222.101437 35.1743C 225.270637 40.278 225.603837 46.9019 222.397637 52.4746C 218.371937 59.4768 210.076137 62.5272 202.641737 60.2381C 195.244437 73.1864 179.171137 79.464 164.630737 74.2081C 167.454437 83.7473 176.014337 90.6807 186.136537 90.6807C 192.613237 90.6807 198.448237 87.8415 202.552937 83.3003C 207.602937 83.2512 212.425837 82.4898 212.425837 82.4898C 219.112337 81.1292 225.282937 78.3538 230.609437 74.4954C 242.360737 65.9828 250.000037 52.1873 250.000037 36.616C 250.000037 26.9172 247.038137 17.9084 241.963437 10.4347ZM 149.362253 77.216786C 154.812153 78.471786 160.402653 77.189786 164.633253 74.208186C 167.456953 83.747386 176.016853 90.680786 186.139053 90.680786C 192.615753 90.680786 198.450753 87.841586 202.555453 83.300386C 207.605453 83.251286 212.428453 82.489886 212.428453 82.489886C 219.114853 81.129286 225.285453 78.353886 230.611953 74.495486C 231.063653 76.740286 231.303053 79.063686 231.303053 81.441186C 231.303053 100.863486 215.479153 116.611586 195.957753 116.611586C 193.906653 116.611586 191.897553 116.434686 189.942653 116.103186C 189.942653 116.159686 189.942653 116.213686 189.942653 116.267686C 189.942653 134.358886 175.204753 149.023886 157.023653 149.023886C 148.446453 149.023886 140.634453 145.757286 134.774853 140.408086L 134.774853 58.850586C 134.710653 67.427086 140.612253 75.205286 149.359753 77.216786L 149.362253 77.216786ZM 57.3583 60.238222C 49.9239 62.524822 41.6281 59.474422 37.6024 52.474722C 34.3986 46.902022 34.7318 40.278122 37.8986 35.174422C 28.734 29.368422 21.7316 20.489822 18.3402 10.000122C 18.239 10.145022 18.1353 10.287522 18.0366 10.434822C 12.9619 17.908522 10 26.917322 10 36.616122C 10 52.187422 17.6392 65.982922 29.3906 74.495522C 34.717 78.353922 40.8876 81.126822 47.5741 82.489922C 47.5741 82.489922 52.3971 83.251322 57.4471 83.300422C 61.5518 87.844122 67.3867 90.680822 73.8634 90.680822C 83.9857 90.680822 92.5456 83.747422 95.3693 74.208222C 80.8288 79.466522 64.7556 73.186522 57.3583 60.238222ZM 110.640363 77.216786C 105.190463 78.471786 99.599863 77.189786 95.369263 74.208186C 92.545563 83.747386 83.985763 90.680786 73.863463 90.680786C 67.386763 90.680786 61.551863 87.841586 57.447163 83.300386C 52.397063 83.251286 47.574163 82.489886 47.574163 82.489886C 40.887663 81.129286 34.717063 78.353886 29.390563 74.495486C 28.938863 76.740286 28.699463 79.063686 28.699463 81.441186C 28.699463 100.863486 44.523363 116.611586 64.044763 116.611586C 66.095863 116.611586 68.105063 116.434686 70.059863 116.103186C 70.059863 116.159686 70.059863 116.213686 70.059863 116.267686C 70.059863 134.358886 84.797763 149.023886 102.978863 149.023886C 111.556063 149.023886 119.368063 145.757286 125.227663 140.408086L 125.227663 58.850586C 125.291863 67.427086 119.390263 75.205286 110.642763 77.216786L 110.640363 77.216786ZM 189.940244 116.103177C 180.373244 114.469877 172.116944 109.010077 166.825044 101.364477C 166.825044 101.364477 166.822544 101.359577 166.820144 101.357077C 166.664644 101.359577 166.506644 101.361977 166.351144 101.361977C 153.321244 101.361977 142.759644 90.852677 142.759644 77.887277C 142.759644 76.723077 142.846044 75.576177 143.008944 74.456177M 134.777294 105.215454C 134.713094 113.791954 140.614694 121.570154 149.362194 123.581654M 191.872803 89.914498C 193.837503 89.882598 195.839303 90.255898 197.759603 91.083598C 202.264103 93.026298 205.248203 97.009998 206.089903 101.477498M 70.059875 116.103299C 79.626775 114.469999 87.883075 109.010199 93.174975 101.364599C 93.174975 101.364599 93.177475 101.359699 93.179975 101.357199C 93.335475 101.359699 93.493375 101.362099 93.648875 101.362099C 106.678775 101.362099 117.240475 90.852799 117.240475 77.887399C 117.240475 76.723199 117.154075 75.576299 116.991175 74.456299M 125.222778 105.215576C 125.286878 113.792076 119.385378 121.570276 110.637878 123.581776M 68.127256 89.914498C 66.162556 89.882598 64.160756 90.255898 62.240456 91.083598C 57.735956 93.026298 54.751856 97.009998 53.910156 101.477498"></path></g></g></g><g id="g-root-5.line_sy_8x5p19a0ucy7-stroke" data-item-order="-94069" transform="translate(207, 374.99993896484375)"><g id="5.line_sy_8x5p19a0ucy7-stroke" fill="none" stroke-linecap="round" stroke-linejoin="round" stroke-miterlimit="4" stroke="#b7b7b7" stroke-width="2"><g><path d="M 10 10.000061L 80 10.000061"></path><path d="M 74 16.500061L 80.5 10.000061L 74 3.500061" stroke-dasharray="none"></path></g></g></g><g id="g-root-4.cu_sy_1iosda0ueio-stroke" data-item-order="-94066" transform="translate(379.7791748046875, 174.959716796875)"><g id="4.cu_sy_1iosda0ueio-stroke" fill="none" stroke-linecap="round" stroke-linejoin="round" stroke-miterlimit="4" stroke="#fb6762" stroke-width="2"><g><path d="M 105.45268 44.355C 105.45268 29.3978 96.91498 16.4274 84.42808 10C 84.42808 19.5171 80.98248 28.9778 75.25118 35.7147C 71.08728 37.0336 67.40958 39.8948 65.16348 44.0185C 63.93428 46.2732 63.25798 48.6776 63.08768 51.0796L 63.04568 53.6928C 62.97658 57.7993 61.93988 61.9525 59.83698 65.8134C 52.85428 78.6338 36.74648 83.3936 23.86228 76.4455C 15.41838 71.892 10.45478 63.4384 10.00058 54.5451L 10.00058 107.6543C 14.25088 110.049 19.16518 111.417 24.40038 111.417C 26.10838 111.417 27.78178 111.2721 29.40838 110.9921L 29.41828 110.9921C 31.70138 118.623 38.80748 124.1908 47.22178 124.1908C 57.47978 124.1908 65.79288 115.9164 65.79288 105.7116C 65.79288 104.0022 65.55838 102.3468 65.12398 100.775L 65.16588 100.7627C 77.58858 100.7627 87.65908 90.7421 87.65908 78.3809C 87.65908 77.8774 87.60968 76.8827 87.60968 76.8827C 96.54228 71.1601 102.96468 61.8935 104.87018 51.0821C 105.25518 48.8986 105.45758 46.6514 105.45758 44.3599L 105.45268 44.355ZM 77.865031 149.254771C 85.299331 151.541271 93.595131 148.490971 97.620831 141.491271C 100.824631 135.918471 100.491431 129.294571 97.324731 124.190971C 106.489331 118.384871 113.491731 109.506271 116.883031 99.016571C 118.344231 94.492571 119.141531 89.671371 119.141531 84.663571C 119.141531 71.489371 113.671931 59.587471 104.870131 51.077271C 102.964631 61.891171 96.542231 71.155371 87.609631 76.877871C 87.641731 77.373971 87.659031 77.872571 87.659031 78.376071C 87.659031 90.737271 77.588531 100.757971 65.165831 100.757971L 65.123931 100.770171C 65.560831 102.342071 65.792831 103.997471 65.792831 105.706871C 65.792831 115.914071 57.477331 124.185971 47.221731 124.185971C 38.807431 124.185971 31.701431 118.618171 29.418231 110.984871L 29.408331 110.984871C 27.781831 111.267271 26.108331 111.412171 24.400331 111.412171C 19.165131 111.412171 14.253331 110.044171 10.000531 107.649571L 10.000531 147.862171C 9.936331 156.438671 15.837931 164.216871 24.585431 166.228371C 30.035331 167.483471 35.625931 166.201371 39.856431 163.219771C 54.396931 168.478171 70.470131 162.198071 77.867531 149.249871L 77.865031 149.254771ZM 76.408783 58.990479C 82.722583 62.625379 87.098783 69.227179 87.607183 76.880179M 48.241116 93.659877C 44.770716 89.720377 42.667816 84.560277 42.667816 78.911377M 75.248688 35.714715C 79.629788 34.327015 84.549088 34.648715 88.910388 36.999215M 55.929657 71.366455C 57.714157 74.247355 60.251557 76.723055 63.442957 78.471755C 64.484557 79.041555 65.553357 79.513155 66.641857 79.886455M 31.817422 95.379151C 29.815622 98.328851 28.645722 101.885151 28.645722 105.711651C 28.645722 107.546351 28.914722 109.317151 29.413322 110.989651M 100.770275 99.728714C 105.807975 90.548114 104.164175 78.800914 96.102875 71.364014M 81.310747 135.311776C 78.395747 126.052576 70.487447 119.723276 61.456147 118.340576M 39.854035 163.224566C 47.105735 156.008766 47.105735 144.305766 39.854035 137.089966M 88.394562 117.935303C 91.882162 118.895603 95.068662 121.017703 97.314762 124.191003"></path></g></g></g><g id="g-root-4.line_sy_1q7m7lpa0ubyh-stroke" data-item-order="-94061" transform="translate(503, 267)"><g id="4.line_sy_1q7m7lpa0ubyh-stroke" fill="none" stroke-linecap="round" stroke-linejoin="round" stroke-miterlimit="4" stroke="#b7b7b7" stroke-width="2"><g><path d="M 50 10L 12 10"></path><path d="M 18 3.5L 11.5 10L 18 16.5" stroke-dasharray="none"></path></g></g></g><g id="g-root-3.cu_sy_1lrsph9a0ucqq-stroke" data-item-order="-94058" transform="translate(261.0841979980469, 174.962158203125)"><g id="3.cu_sy_1lrsph9a0ucqq-stroke" fill="none" stroke-linecap="round" stroke-linejoin="round" stroke-miterlimit="4" stroke="#43dd93" stroke-width="2"><g><path d="M 105.276862 76.4431C 92.392562 83.3912 76.284862 78.6314 69.302162 65.8109C 67.199162 61.95 66.162562 57.7969 66.093462 53.6904L 66.051462 51.0772C 65.881162 48.6752 65.202362 46.2707 63.975662 44.0161C 61.729562 39.8899 58.051862 37.0311 53.887962 35.7122C 48.156662 28.9778 44.710962 19.5147 44.710962 10C 32.221662 16.4274 23.686462 29.4002 23.686462 44.355C 23.686462 46.6489 23.888862 48.8937 24.273862 51.0772C 26.179362 61.8911 32.601762 71.1552 41.534362 76.8778C 41.534362 76.8778 41.484962 77.8725 41.484962 78.376C 41.484962 90.7372 51.555462 100.7578 63.978162 100.7578L 64.020062 100.7701C 63.583262 102.3419 63.351162 103.9973 63.351162 105.7067C 63.351162 115.914 71.666762 124.1859 81.922262 124.1859C 90.336562 124.1859 97.442662 118.6181 99.725762 110.9847L 99.735662 110.9847C 101.362162 111.2671 103.035662 111.4121 104.743662 111.4121C 109.978862 111.4121 114.890662 110.044 119.143462 107.6494L 119.143462 54.5402C 118.689262 63.4335 113.725662 71.8871 105.281762 76.4406L 105.276862 76.4431ZM 104.7412 111.414612C 103.0332 111.414612 101.3597 111.269712 99.7331 110.989712L 99.7233 110.989712C 97.4401 118.620612 90.3341 124.188412 81.9198 124.188412C 71.6618 124.188412 63.3487 115.914112 63.3487 105.709312C 63.3487 103.999912 63.5832 102.344512 64.0176 100.772612L 63.9756 100.760312C 51.5529 100.760312 41.4825 90.739712 41.4825 78.378512C 41.4825 77.875012 41.4998 77.376512 41.5319 76.880312C 32.5993 71.157812 26.1769 61.891212 24.2714 51.079712C 15.4696 59.587412 10 71.489312 10 84.666012C 10 89.673812 10.7948 94.495012 12.2584 99.019012C 15.6498 109.508712 22.6522 118.384812 31.8168 124.193412C 28.6476 129.297012 28.3144 135.920912 31.5206 141.493712C 35.5464 148.495812 43.8421 151.546212 51.2765 149.257212C 58.6738 162.205412 74.7471 168.483012 89.2875 163.227112C 93.5181 166.208712 99.1087 167.490812 104.5586 166.235712C 113.306 164.221812 119.2076 156.443512 119.1434 147.869512L 119.1434 107.656912C 114.8931 110.051512 109.9788 111.419512 104.7437 111.419512L 104.7412 111.414612ZM 52.727819 58.988037C 46.414119 62.622937 42.037919 69.224737 41.529419 76.877737M 80.895508 93.657435C 84.365908 89.717935 86.468808 84.557835 86.468808 78.908935M 53.887896 35.712395C 49.506796 34.324695 44.587596 34.646395 40.226196 36.996895M 73.20689 71.364013C 71.42239 74.244913 68.88499 76.720613 65.69349 78.469313C 64.65189 79.039113 63.58319 79.510713 62.49469 79.884013M 97.321716 95.376709C 99.323416 98.326409 100.493416 101.882709 100.493416 105.709209C 100.493416 107.543909 100.224416 109.314709 99.725816 110.987209M 28.366235 99.726272C 23.328535 90.545672 24.972435 78.798472 33.033735 71.361572M 47.82843 135.309334C 50.74343 126.050134 58.65173 119.720834 67.68303 118.338134M 40.742038 117.932861C 37.254438 118.893161 34.067938 121.015261 31.821838 124.188561M 89.282672 163.222124C 82.030972 156.006324 82.030972 144.303324 89.282672 137.087524"></path></g></g></g><g id="g-root-3.line_sy_1cw5p8da0udjf-stroke" data-item-order="-94053" transform="translate(206.99996948242188, 267)"><g id="3.line_sy_1cw5p8da0udjf-stroke" fill="none" stroke-linecap="round" stroke-linejoin="round" stroke-miterlimit="4" stroke="#b7b7b7" stroke-width="2"><g><path d="M 10.000031 10L 50.000031 10"></path><path d="M 44.000031 16.5L 50.500031 10L 44.000031 3.5" stroke-dasharray="none"></path></g></g></g><g id="g-root-2.cu_sy_zlbny5a0ubyk-stroke" data-item-order="-94050" transform="translate(379.77484130859375, 123)"><g id="2.cu_sy_zlbny5a0ubyk-stroke" fill="none" stroke-linecap="round" stroke-linejoin="round" stroke-miterlimit="4" stroke="#1ac3fb" stroke-width="2"><g><path d="M 23.8642 128.405316C 36.7484 135.353516 52.8562 130.593716 59.8389 117.773216C 61.9418 113.912316 62.9785 109.759116 63.0476 105.652616L 63.0895 103.039416C 63.2598 100.637416 63.9386 98.233016 65.1653 95.978316C 67.4115 91.852216 71.0891 88.993416 75.2531 87.674516C 80.9843 80.940016 84.43 71.476916 84.43 61.962316C 84.4029 60.577116 84.3017 59.209016 84.1338 57.860716C 81.2682 56.310916 77.9681 55.424316 74.478 55.424316C 69.6576 55.424316 65.2468 57.096916 61.7715 59.896716C 62.8156 63.035516 62.8131 66.540316 61.5173 69.863316C 59.481 75.087316 54.7864 78.501216 49.5685 79.169216L 46.5918 79.346116C 40.7741 79.847116 35.4624 83.550816 33.2089 89.332316C 31.7181 93.156316 31.8341 97.203916 33.2262 100.743016C 30.2396 99.129416 26.8878 98.186316 23.2496 98.186316C 18.2291 98.186316 13.6185 99.932516 10 102.850316L 10 106.504916C 10.4542 115.398216 15.4178 123.851916 23.8617 128.405316L 23.8642 128.405316ZM 61.7715 59.8943C 62.8156 63.0331 62.8131 66.5379 61.5173 69.8609C 59.481 75.0849 54.7864 78.4988 49.5685 79.1668L 46.5918 79.3436C 40.7741 79.8447 35.4624 83.5484 33.2089 89.3299C 31.7181 93.1539 31.8341 97.2015 33.2262 100.7406C 30.2396 99.127 26.8878 98.1839 23.2496 98.1839C 18.2291 98.1839 13.6185 99.9301 10 102.8479L 10 33.8284C 10 20.6666 20.7221 10 33.9469 10C 44.2568 10 53.0462 16.4839 56.4203 25.5786C 71.0941 29.8104 82.1888 42.4196 84.1313 57.8607C 81.2657 56.311 77.9657 55.4243 74.4756 55.4243C 69.6551 55.4243 65.2443 57.0969 61.769 59.8968L 61.7715 59.8943ZM 33.228638 100.743042C 34.331938 103.547842 36.237438 106.033342 38.784638 107.831142M 10.002392 64.604847C 9.938192 56.028347 15.839792 48.250147 24.587292 46.238647M 40.374137 59.793643C 49.748637 56.939743 55.025737 47.066443 52.157637 37.736043C 49.289537 28.407943 39.367137 23.156943 29.992737 26.010943M 56.422811 25.578613C 54.253211 26.597913 52.310711 28.172313 50.827311 30.262413C 50.343511 30.945213 49.928811 31.652613 49.580811 32.382013M 29.963135 72.385742C 32.999035 75.328042 36.817435 77.555642 41.208435 78.705142C 42.640035 79.080842 44.076535 79.326442 45.503235 79.449242"></path></g></g></g><g id="g-root-2.line_sy_v5i5tpa0ucqt-stroke" data-item-order="-94045" transform="translate(471, 159)"><g id="2.line_sy_v5i5tpa0ucqt-stroke" fill="none" stroke-linecap="round" stroke-linejoin="round" stroke-miterlimit="4" stroke="#b7b7b7" stroke-width="2"><g><path d="M 82 10L 12 10"></path><path d="M 18 3.5L 11.5 10L 18 16.5" stroke-dasharray="none"></path></g></g></g><g id="g-root-1.cu_sy_m9v5kta0udji-stroke" data-item-order="-94042" transform="translate(295.792724609375, 123)"><g id="1.cu_sy_m9v5kta0udji-stroke" fill="none" stroke-linecap="round" stroke-linejoin="round" stroke-miterlimit="4" stroke="#f366bb" stroke-width="2"><g><path d="M 32.660947 59.8943C 31.616947 63.0331 31.619347 66.5379 32.915247 69.8609C 34.951547 75.0849 39.646147 78.4988 44.864047 79.1668L 47.840747 79.3436C 53.658347 79.8447 58.970047 83.5484 61.223547 89.3299C 62.714347 93.1539 62.598347 97.2015 61.206247 100.7406C 64.192847 99.127 67.544747 98.1839 71.182947 98.1839C 76.203347 98.1839 80.814047 99.9301 84.432447 102.8479L 84.432447 33.8284C 84.432447 20.6666 73.710447 10 60.485547 10C 50.175647 10 41.386247 16.4839 38.012147 25.5786C 23.338447 29.8104 12.243647 42.4196 10.301147 57.8607C 13.166747 56.311 16.466847 55.4243 19.956947 55.4243C 24.777447 55.4243 29.188147 57.0969 32.663447 59.8968L 32.660947 59.8943ZM 19.1794 87.674516C 23.3433 88.993416 27.021 91.854616 29.2671 95.978316C 30.4963 98.233016 31.1726 100.637416 31.3429 103.039416L 31.3849 105.652616C 31.454 109.759116 32.4882 113.912316 34.5936 117.773216C 41.5763 130.593716 57.6841 135.353516 70.5683 128.405316C 79.0122 123.851916 83.9758 115.398216 84.43 106.504916L 84.43 102.850316C 80.8115 99.932516 76.2009 98.186316 71.1805 98.186316C 67.5447 98.186316 64.1904 99.129416 61.2038 100.743016C 62.5959 97.203916 62.7094 93.153916 61.2211 89.332316C 58.9676 83.550816 53.6559 79.847116 47.8382 79.346116L 44.8615 79.169216C 39.6437 78.501216 34.949 75.087316 32.9127 69.863316C 31.6169 66.540316 31.6144 63.035516 32.6585 59.896716C 29.1832 57.096916 24.7725 55.424316 19.952 55.424316C 16.4619 55.424316 13.1618 56.313416 10.2962 57.860716C 10.1259 59.206616 10.0272 60.574616 10 61.962316C 10 71.479416 13.4457 80.940016 19.1769 87.676916L 19.1794 87.674516ZM 84.430053 64.604847C 84.494153 56.028347 78.592653 48.250147 69.845153 46.238647M 54.058152 59.793643C 44.683752 56.939743 39.406652 47.066443 42.274752 37.736043C 45.142852 28.407943 55.065252 23.156943 64.439652 26.010943M 38.009643 25.578613C 40.179243 26.597913 42.121743 28.172313 43.605143 30.262413C 44.088943 30.945213 44.503643 31.652613 44.851643 32.382013M 64.469299 72.385742C 61.433299 75.328042 57.614999 77.555642 53.223999 78.705142C 51.792399 79.080842 50.355799 79.326442 48.929199 79.449242M 61.203766 100.743042C 60.100466 103.547842 58.194966 106.033342 55.647766 107.831142"></path></g></g></g><g id="g-root-1.line_sy_hu1ngda0uebr-stroke" data-item-order="-94037" transform="translate(207, 159)"><g id="1.line_sy_hu1ngda0uebr-stroke" fill="none" stroke-linecap="round" stroke-linejoin="round" stroke-miterlimit="4" stroke="#b7b7b7" stroke-width="2"><g><path d="M 10 10L 80 10"></path><path d="M 74 16.5L 80.5 10L 74 3.5" stroke-dasharray="none"></path></g></g></g><g id="g-root-tx_componen_hu1ngda0uebs-stroke" data-item-order="0" transform="translate(231, 39)"></g><g id="g-root-tx_userinte_18lx8n1aavdvl-stroke" data-item-order="0" transform="translate(3, 147)"></g><g id="g-root-shap_4j7m65a0ucqx-stroke" data-item-order="0" transform="translate(159, 141)"><g id="shap_4j7m65a0ucqx-stroke" fill="none" stroke-linecap="round" stroke-linejoin="round" stroke-miterlimit="4" stroke="#dd57a8" stroke-width="2"><g><path d="M 32.703999 45.25L 12.3175 45.25C 11.451794 45.249996 10.75 44.548206 10.75 43.682495L 10.75 12.3175C 10.75 11.451794 11.451794 10.75 12.3175 10.75L 39.767498 10.75M 16.238501 31.528L 28.7605 31.528M 16.238501 37.931499L 26.8825 37.931499M 16.238501 16.3675L 23.74 16.3675L 23.74 24.806499L 16.238501 24.806499ZM 35.448997 21.335501C 35.448997 23.717228 37.379772 25.648001 39.761497 25.648001C 42.14323 25.648001 44.073997 23.717228 44.073997 21.335501C 44.073997 18.953772 42.14323 17.023001 39.761497 17.023001C 37.379772 17.023001 35.448997 18.953772 35.448997 21.335501M 45.25 32.703999C 45.249424 29.673191 42.792305 27.216541 39.761497 27.216541C 36.73069 27.216541 34.273575 29.673191 34.272999 32.703999L 34.272999 37.4095L 36.755501 37.4095L 37.4095 45.25L 42.113503 45.25L 42.767498 37.4095L 45.25 37.4095Z"></path></g></g></g><g id="g-root-exch_1cws9h9a1cnwp-stroke" data-item-order="0" transform="translate(555, 141)"><g id="exch_1cws9h9a1cnwp-stroke" fill="none" stroke-linecap="round" stroke-linejoin="round" stroke-miterlimit="4" stroke="#1fa9d7" stroke-width="2"><g><path d="M 39.625 19.375L 39.625 17.875C 39.625 16.218145 38.281857 14.875 36.625 14.875L 29.125 14.875M 32.5345 18.2845L 29.125 14.875L 32.5345 11.4655M 15.625 36.625L 15.625 38.125C 15.625 39.781857 16.968145 41.125 18.625 41.125L 26.125 41.125M 22.7155 37.7155L 26.125 41.125L 22.7155 44.5345M 34.375 24.625L 42.625 24.625C 42.625 24.625 44.875 24.625 44.875 26.875L 44.875 42.625C 44.875 42.625 44.875 44.875 42.625 44.875L 34.375 44.875C 34.375 44.875 32.125 44.875 32.125 42.625L 32.125 26.875C 32.125 26.875 32.125 24.625 34.375 24.625M 44.875 38.875L 32.125 38.875M 36.25 31.960001L 37.75 33.459999L 40.75 30.460001M 12.1855 11.125L 22.75 11.125C 23.578428 11.125 24.25 11.796573 24.25 12.625L 24.25 27.625C 24.25 28.453428 23.578428 29.125 22.75 29.125L 19.375 29.125M 19.375 31.695999C 19.375938 31.954195 19.24682 32.195511 19.0315 32.337997C 18.818121 32.47937 18.546646 32.499817 18.314501 32.392002L 11.5645 29.263C 11.295286 29.136017 11.123932 28.864656 11.125 28.566999L 11.125 11.89C 11.124102 11.631409 11.253148 11.389657 11.4685 11.2465C 11.683216 11.107564 11.954638 11.089961 12.1855 11.2L 18.935499 14.329C 19.204969 14.455693 19.37644 14.727237 19.375 15.025Z"></path></g></g></g><g id="g-root-tx_accessib_1unehh9aawsnc-stroke" data-item-order="0" transform="translate(603, 147)"></g><g id="g-root-tx_searchfu_1hit725aavehb-stroke" data-item-order="0" transform="translate(15, 243)"></g><g id="g-root-text_zrket9a15ki0-stroke" data-item-order="0" transform="translate(159, 249)"><g id="text_zrket9a15ki0-stroke" fill="none" stroke-linecap="round" stroke-linejoin="round" stroke-miterlimit="4" stroke="#3bc482" stroke-width="2"><g><path d="M 35.077 35.073997C 30.270046 39.881649 22.736338 40.624031 17.083447 36.847115C 11.430555 33.070194 9.233009 25.825975 11.834815 19.544981C 14.436621 13.263986 21.113087 9.69569 27.78092 11.022442C 34.448753 12.349195 39.250736 18.20145 39.25 25C 39.254684 28.780336 37.752949 32.406746 35.077 35.077M 35.073997 35.070999L 45.25 45.246998M 16.75 27.25L 16.75 24.25C 16.75 23.421572 17.421574 22.75 18.25 22.75L 33.25 22.75C 34.078426 22.75 34.75 23.421572 34.75 24.25L 34.75 27.25M 25.75 42.246998L 25.75 45.246998M 25.75 22.747L 25.75 36.246998M 22 45.246998L 29.5 45.246998"></path></g></g></g><g id="g-root-spar_qqxp19a12ubr-stroke" data-item-order="0" transform="translate(555, 249)"><g id="spar_qqxp19a12ubr-stroke" fill="none" stroke-linecap="round" stroke-linejoin="round" stroke-miterlimit="4" stroke="#e45752" stroke-width="2"><g><path d="M 31.703199 18.233574C 34.748501 17.621365 37.200249 15.139705 37.81345 12.015625C 38.426651 15.139705 40.8778 17.621365 43.9231 18.233574M 43.9231 18.237129C 40.8778 18.849325 38.426052 21.330999 37.812851 24.45508C 37.19965 21.330999 34.748501 18.84934 31.703199 18.237129M 12.077155 22.181635L 27.560499 22.181635M 12.077155 29.447201L 43.2271 29.447201M 12.077155 36.71875L 43.2271 36.71875M 12.077155 43.984299L 43.2271 43.984299"></path></g></g></g><g id="g-root-tx_contentq_zk1hj1aawr9h-stroke" data-item-order="0" transform="translate(603, 255)"></g><g id="g-root-tx_reliabil_8vvim5aaws96-stroke" data-item-order="0" transform="translate(39, 363)"></g><g id="g-root-star_4otvy5a18g0e-stroke" data-item-order="0" transform="translate(159, 357)"><g id="star_4otvy5a18g0e-stroke" fill="none" stroke-linecap="round" stroke-linejoin="round" stroke-miterlimit="4" stroke="#f0d80d" stroke-width="2"><g><path d="M 22.600029 31.224998C 24.40003 33.174999 27.099998 34.375 29.950001 34.375C 31.450001 34.375 32.799999 34.074997 34 33.474998M 28 40.074997C 31.396599 40.074997 34.150002 37.321598 34.150002 33.924999C 34.150002 30.5284 31.396599 27.775002 28 27.775002C 24.603445 27.775002 21.849985 30.5284 21.849985 33.924999C 21.849985 37.321598 24.603445 40.074997 28 40.074997ZM 34.900002 44.875C 32.950001 43.375 30.549999 42.625 28 42.625C 25.450001 42.625 23.049986 43.525002 21.099985 44.875M 17.853025 13.375C 17.553024 13.375 17.253025 13.525 17.103025 13.825L 15.303025 17.575001L 12.003025 17.575001C 11.253031 17.575001 10.80304 18.475 11.40304 19.075001L 14.40304 21.924999L 12.753025 25.674999C 12.453025 26.424999 13.20304 27.174999 13.95304 26.724998L 17.853025 24.474998L 18.90304 25.075001M 10 10M 28.900002 11.575015L 30.700001 15.325015L 33.849998 15.325015C 34.599998 15.325015 35.050003 16.225016 34.449997 16.825016L 31.450001 19.675014L 33.099998 23.425014C 33.400002 24.175014 32.650002 24.925014 31.900002 24.475016L 28 22.225016L 24.099998 24.475016C 23.349998 24.925014 22.450014 24.175014 22.900015 23.425014L 24.549999 19.675014L 21.549999 16.825016C 20.950001 16.225016 21.400015 15.325015 22.150015 15.325015L 25.299999 15.325015L 27.099998 11.575015C 27.400002 10.984375 28.599998 10.975018 28.900002 11.575015ZM 38.290001 13.375C 38.59 13.375 38.889999 13.525 39.040001 13.825L 40.84 17.575001L 43.989998 17.575001C 44.739998 17.575001 45.189999 18.475 44.59 19.075001L 41.59 21.924999L 43.239998 25.674999C 43.540001 26.424999 42.790001 27.174999 42.040001 26.724998L 38.139999 24.474998L 37.09 25.075001"></path></g></g></g></g></g></svg>