<?xml version="1.0" encoding="utf-8" standalone="yes"?>
<!DOCTYPE svg PUBLIC "-//W3C//DTD SVG 1.1//EN" "http://www.w3.org/Graphics/SVG/1.1/DTD/svg11.dtd">
<svg width="806" height="392" viewBox="0 0 806 392" style="fill:none;stroke:none;fill-rule:evenodd;clip-rule:evenodd;stroke-linecap:round;stroke-linejoin:round;stroke-miterlimit:1.5;" version="1.1" xmlns="http://www.w3.org/2000/svg" xmlns:xlink="http://www.w3.org/1999/xlink"><style class="text-font-style fontImports" data-font-family="Roboto">@import url('https://fonts.googleapis.com/css2?family=Roboto:wght@400;700&amp;display=block');</style><style class="text-font-style fontImports" data-font-family="Shantell Sans">@import url('https://fonts.googleapis.com/css2?family=Shantell+Sans:wght@300..800&amp;display=block');</style><g id="items" style="isolation: isolate"><g id="blend" style="mix-blend-mode: normal"><g id="g-root--1.cu_sy_1urt1bq18zp24t-fill" data-item-order="-149754" transform="translate(230, 117.00006103515625)"><g id="-1.cu_sy_1urt1bq18zp24t-fill" stroke="none" fill="#545454"><g><path d="M 125 34L 101 10L 10 166L 34 190L 125 34ZM 125 34L 34 190L 216 190L 125 34Z"></path></g></g></g><g id="g-root-0.line-start_sy_1hgz01i18zp0jy-fill" data-item-order="-149749" transform="translate(207, 219.00006103515625)"></g><g id="g-root-0.cr-small_cr_1d15hx218zp1c7-fill" data-item-order="-149748" transform="translate(135, 183)"><g id="0.cr-small_cr_1d15hx218zp1c7-fill" stroke="none" fill="#815d3b"><g><path d="M 10 46C 10.000002 65.882254 26.117751 82.000003 46.000002 82.000003C 65.882253 82.000003 82.000002 65.882254 82.000002 46.000003C 82.000002 26.117752 65.882253 10.000003 46.000002 10.000003C 26.117751 10.000003 10.000002 26.117752 10.000002 46.000003"></path></g></g></g><g id="g-root-3.line_sy_hz1g5218zp24g-fill" data-item-order="-149741" transform="translate(299.5, 219.00006103515625)"></g><g id="g-root-3.cr-small_cr_hz1g5218zp24h-fill" data-item-order="-149740" transform="translate(555, 315)"><g id="3.cr-small_cr_hz1g5218zp24h-fill" stroke="none" fill="#69425a"><g><path d="M 10 40C 10.000039 56.568573 23.431496 70.00003 40.000039 70.00003C 56.568581 70.00003 70.000039 56.568573 70.000039 40.00003C 70.000039 23.431488 56.568581 10.00003 40.000039 10.00003C 23.431496 10.00003 10.000039 23.431488 10.000039 40.00003"></path></g></g></g><g id="g-root-3.line_sy_zlxypi1adog0d-fill" data-item-order="-149733" transform="translate(300, 219.00006103515625)"></g><g id="g-root-3.cr-small_cr_zlxypi1adog0e-fill" data-item-order="-149732" transform="translate(555, 231)"><g id="3.cr-small_cr_zlxypi1adog0e-fill" stroke="none" fill="#68403f"><g><path d="M 10 40C 10.000002 56.568544 23.431459 70.000002 40.000002 70.000002C 56.568544 70.000002 70.000002 56.568544 70.000002 40.000002C 70.000002 23.431459 56.568544 10.000002 40.000002 10.000002C 23.431459 10.000002 10.000002 23.431459 10.000002 40.000002"></path></g></g></g><g id="g-root-2.line_sy_93efw618zp2x6-fill" data-item-order="-149725" transform="translate(299.5, 177.00006103515625)"></g><g id="g-root-2.cr-small_cr_4o7euu18zp0jn-fill" data-item-order="-149724" transform="translate(555, 147)"><g id="2.cr-small_cr_4o7euu18zp0jn-fill" stroke="none" fill="#3b5649"><g><path d="M 10 40C 10.000039 56.568564 23.431496 70.000022 40.000039 70.000022C 56.568581 70.000022 70.000039 56.568564 70.000039 40.000022C 70.000039 23.431479 56.568581 10.000022 40.000039 10.000022C 23.431496 10.000022 10.000039 23.431479 10.000039 40.000022"></path></g></g></g><g id="g-root-1.line_sy_1d30x6e18zp0ck-fill" data-item-order="-149717" transform="translate(299.5, 93.00006103515625)"></g><g id="g-root-1.cr-small_cr_zrket218zp1xh-fill" data-item-order="-149716" transform="translate(555, 63.000030517578125)"><g id="1.cr-small_cr_zrket218zp1xh-fill" stroke="none" fill="#3e4e69"><g><path d="M 10 39.999969C 10.000039 56.568529 23.431496 69.999987 40.000039 69.999987C 56.568581 69.999987 70.000039 56.568529 70.000039 39.999987C 70.000039 23.431444 56.568581 9.999987 40.000039 9.999987C 23.431496 9.999987 10.000039 23.431444 10.000039 39.999987"></path></g></g></g><g id="g-root-book_8vwu0m18zgnic-fill" data-item-order="0" transform="translate(567, 75.00003051757812)"></g><g id="g-root-tx_notes_v8mmeu18znn66-fill" data-item-order="0" transform="translate(627, 81.00003051757812)"><g id="tx_notes_v8mmeu18znn66-fill" stroke="none" fill="#4e88e6"><g><text style="font: 20px &quot;Shantell Sans&quot;, cursive; white-space: pre;" font-size="20px" font-family="'Shantell Sans', cursive"><tspan x="12" y="35.6" dominant-baseline="ideographic">Practical Notes</tspan></text></g></g></g><g id="g-root-spea_18fpt6e18zf6rs-fill" data-item-order="0" transform="translate(567, 159)"></g><g id="g-root-tx_presenta_1uqk6ba18znmdg-fill" data-item-order="0" transform="translate(627, 165)"><g id="tx_presenta_1uqk6ba18znmdg-fill" stroke="none" fill="#3bc482"><g><text style="font: 20px &quot;Shantell Sans&quot;, cursive; white-space: pre;" font-size="20px" font-family="'Shantell Sans', cursive"><tspan x="12" y="35.6" dominant-baseline="ideographic">Presentations</tspan></text></g></g></g><g id="g-root-tx_exclusiv_zmkp9y18zno5c-fill" data-item-order="0" transform="translate(3, 183)"><g id="tx_exclusiv_zmkp9y18zno5c-fill" stroke="none" fill="#de8431"><g><text style="font: 20px &quot;Shantell Sans&quot;, cursive; white-space: pre;" font-size="20px" font-family="'Shantell Sans', cursive"><tspan x="42.19" y="35.6" dominant-baseline="ideographic">Exclusive </tspan><tspan x="14.13" y="59.6" dominant-baseline="ideographic">Educational </tspan><tspan x="31.58" y="83.6" dominant-baseline="ideographic">Resources</tspan></text></g></g></g><g id="g-root-math_qvxek618zp2q6-fill" data-item-order="0" transform="translate(147, 195)"></g><g id="g-root-mult_1d3nhfa1ancsg1-fill" data-item-order="0" transform="translate(567, 243)"></g><g id="g-root-tx_neweleme_8znf1y1adog0f-fill" data-item-order="0" transform="translate(627, 249)"><g id="tx_neweleme_8znf1y1adog0f-fill" stroke="none" fill="#e45752"><g><text style="font: 20px Roboto, sans-serif; white-space: pre;" font-size="20px" font-family="Roboto, sans-serif"><tspan x="12" y="34" dominant-baseline="ideographic">Docs</tspan></text></g></g></g><g id="g-root-3_mg3wfq18zw1l0-fill" data-item-order="0" transform="translate(567, 327)"></g><g id="g-root-tx_othermat_90a5me18zno5e-fill" data-item-order="0" transform="translate(627, 321)"><g id="tx_othermat_90a5me18zno5e-fill" stroke="none" fill="#dd57a8"><g><text style="font: 20px &quot;Shantell Sans&quot;, cursive; white-space: pre;" font-size="20px" font-family="'Shantell Sans', cursive"><tspan x="12" y="35.6" dominant-baseline="ideographic">Other </tspan><tspan x="12" y="59.6" dominant-baseline="ideographic">Materials</tspan></text></g></g></g><g id="g-root--1.cu_sy_1urt1bq18zp24t-stroke" data-item-order="-149754" transform="translate(230, 117.00006103515625)"><g id="-1.cu_sy_1urt1bq18zp24t-stroke" fill="none" stroke-linecap="round" stroke-linejoin="round" stroke-miterlimit="4" stroke="#b7b7b7" stroke-width="2"><g><path d="M 125 34L 101 10L 10 166L 34 190L 125 34ZM 125 34L 34 190L 216 190L 125 34Z"></path></g></g></g><g id="g-root-0.line-start_sy_1hgz01i18zp0jy-stroke" data-item-order="-149749" transform="translate(207, 219.00006103515625)"><g id="0.line-start_sy_1hgz01i18zp0jy-stroke" fill="none" stroke-linecap="round" stroke-linejoin="round" stroke-miterlimit="4" stroke="#de8431" stroke-width="2"><g><path d="M 10 10.000001L 102.5 10.000001"></path></g></g></g><g id="g-root-0.cr-small_cr_1d15hx218zp1c7-stroke" data-item-order="-149748" transform="translate(135, 183)"><g id="0.cr-small_cr_1d15hx218zp1c7-stroke" fill="none" stroke-linecap="round" stroke-linejoin="round" stroke-miterlimit="4" stroke="#f79438" stroke-width="2"><g><path d="M 10 46C 10.000002 65.882254 26.117751 82.000003 46.000002 82.000003C 65.882253 82.000003 82.000002 65.882254 82.000002 46.000003C 82.000002 26.117752 65.882253 10.000003 46.000002 10.000003C 26.117751 10.000003 10.000002 26.117752 10.000002 46.000003"></path></g></g></g><g id="g-root-3.line_sy_hz1g5218zp24g-stroke" data-item-order="-149741" transform="translate(299.5, 219.00006103515625)"><g id="3.line_sy_hz1g5218zp24g-stroke" fill="none" stroke-linecap="round" stroke-linejoin="round" stroke-miterlimit="4" stroke="#f366bb" stroke-width="2"><g><path d="M 257.88 134.819939L 111.5 27.999939L 10 9.999939"></path><path d="M 249.2 136.499939L 258.3 135.099939L 256.9 125.999939" stroke-dasharray="none"></path></g></g></g><g id="g-root-3.cr-small_cr_hz1g5218zp24h-stroke" data-item-order="-149740" transform="translate(555, 315)"><g id="3.cr-small_cr_hz1g5218zp24h-stroke" fill="none" stroke-linecap="round" stroke-linejoin="round" stroke-miterlimit="4" stroke="#f366bb" stroke-width="2"><g><path d="M 10 40C 10.000039 56.568573 23.431496 70.00003 40.000039 70.00003C 56.568581 70.00003 70.000039 56.568573 70.000039 40.00003C 70.000039 23.431488 56.568581 10.00003 40.000039 10.00003C 23.431496 10.00003 10.000039 23.431488 10.000039 40.00003"></path></g></g></g><g id="g-root-3.line_sy_zlxypi1adog0d-stroke" data-item-order="-149733" transform="translate(300, 219.00006103515625)"><g id="3.line_sy_zlxypi1adog0d-stroke" fill="none" stroke-linecap="round" stroke-linejoin="round" stroke-miterlimit="4" stroke="#fb6762" stroke-width="2"><g><path d="M 257.05 51.549939L 104 15.999939L 10 9.999939"></path><path d="M 249.7 56.499939L 257.5 51.699939L 252.7 43.899939" stroke-dasharray="none"></path></g></g></g><g id="g-root-3.cr-small_cr_zlxypi1adog0e-stroke" data-item-order="-149732" transform="translate(555, 231)"><g id="3.cr-small_cr_zlxypi1adog0e-stroke" fill="none" stroke-linecap="round" stroke-linejoin="round" stroke-miterlimit="4" stroke="#fb6762" stroke-width="2"><g><path d="M 10 40C 10.000002 56.568544 23.431459 70.000002 40.000002 70.000002C 56.568544 70.000002 70.000002 56.568544 70.000002 40.000002C 70.000002 23.431459 56.568544 10.000002 40.000002 10.000002C 23.431459 10.000002 10.000002 23.431459 10.000002 40.000002"></path></g></g></g><g id="g-root-2.line_sy_93efw618zp2x6-stroke" data-item-order="-149725" transform="translate(299.5, 177.00006103515625)"><g id="2.line_sy_93efw618zp2x6-stroke" fill="none" stroke-linecap="round" stroke-linejoin="round" stroke-miterlimit="4" stroke="#43dd93" stroke-width="2"><g><path d="M 257.55 10.429932L 97.5 45.999932L 10 51.999932"></path><path d="M 253.1 18.129932L 258 10.329932L 250.3 5.429932" stroke-dasharray="none"></path></g></g></g><g id="g-root-2.cr-small_cr_4o7euu18zp0jn-stroke" data-item-order="-149724" transform="translate(555, 147)"><g id="2.cr-small_cr_4o7euu18zp0jn-stroke" fill="none" stroke-linecap="round" stroke-linejoin="round" stroke-miterlimit="4" stroke="#43dd93" stroke-width="2"><g><path d="M 10 40C 10.000039 56.568564 23.431496 70.000022 40.000039 70.000022C 56.568581 70.000022 70.000039 56.568564 70.000039 40.000022C 70.000039 23.431479 56.568581 10.000022 40.000039 10.000022C 23.431496 10.000022 10.000039 23.431479 10.000039 40.000022"></path></g></g></g><g id="g-root-1.line_sy_1d30x6e18zp0ck-stroke" data-item-order="-149717" transform="translate(299.5, 93.00006103515625)"><g id="1.line_sy_1d30x6e18zp0ck-stroke" fill="none" stroke-linecap="round" stroke-linejoin="round" stroke-miterlimit="4" stroke="#4f91fc" stroke-width="2"><g><path d="M 10 135.999926L 90.5 117.999926L 257.81 11.079926"></path><path d="M 256.3 19.779926L 258.2 10.779926L 249.3 8.879926" stroke-dasharray="none"></path></g></g></g><g id="g-root-1.cr-small_cr_zrket218zp1xh-stroke" data-item-order="-149716" transform="translate(555, 63.000030517578125)"><g id="1.cr-small_cr_zrket218zp1xh-stroke" fill="none" stroke-linecap="round" stroke-linejoin="round" stroke-miterlimit="4" stroke="#4f91fc" stroke-width="2"><g><path d="M 10 39.999969C 10.000039 56.568529 23.431496 69.999987 40.000039 69.999987C 56.568581 69.999987 70.000039 56.568529 70.000039 39.999987C 70.000039 23.431444 56.568581 9.999987 40.000039 9.999987C 23.431496 9.999987 10.000039 23.431444 10.000039 39.999987"></path></g></g></g><g id="g-root-book_8vwu0m18zgnic-stroke" data-item-order="0" transform="translate(567, 75.00003051757812)"><g id="book_8vwu0m18zgnic-stroke" fill="none" stroke-linecap="round" stroke-linejoin="round" stroke-miterlimit="4" stroke="#4f91fc" stroke-width="2"><g><path d="M 26.4235 40.320999C 24.601 38.157997 19.790501 36.046001 12.226 35.801498C 11.40696 35.788395 10.749895 35.120644 10.75 34.301498L 10.75 13.0165C 10.749935 12.613953 10.911671 12.228272 11.198842 11.946178C 11.486013 11.664084 11.874517 11.509254 12.277 11.5165C 22.087 11.8435 27.25 15.316 27.25 17.950001C 27.25 15.3235 33.046001 11.869 42.217003 11.518C 42.62051 11.509121 43.010574 11.663227 43.299057 11.945499C 43.58754 12.227773 43.750099 12.614391 43.75 13.018L 43.75 32.489502M 27.25 17.9515L 27.25 34.739502M 23.5 18.9895C 20.825571 18.034445 18.050444 17.389229 15.229 17.0665M 31.75 25.7395C 34.4249 24.784296 37.200542 24.139078 40.022499 23.816502M 23.5 25.7395C 20.825571 24.784445 18.050444 24.139229 15.229 23.8165M 23.5 31.7395C 20.80097 30.775414 18.000101 30.124645 15.1525 29.799999M 31.75 18.9895C 34.44981 18.024565 37.251774 17.373777 40.100498 17.049999M 45.25 44.489502L 45.25 42.8395C 45.262402 40.520267 43.446003 38.602699 41.129501 38.489502L 37.75 38.489502L 37.75 31.3645C 37.75 30.328968 36.910534 29.4895 35.875 29.4895C 34.839466 29.4895 34 30.328968 34 31.3645L 34 42.239502L 31.7185 39.030998C 31.462204 38.52269 30.951561 38.192242 30.38287 38.166687C 29.814177 38.141125 29.275949 38.424431 28.97509 38.9077C 28.674229 39.390968 28.657562 39.998978 28.931499 40.497997L 31.0315 44.489502"></path></g></g></g><g id="g-root-tx_notes_v8mmeu18znn66-stroke" data-item-order="0" transform="translate(627, 81.00003051757812)"></g><g id="g-root-spea_18fpt6e18zf6rs-stroke" data-item-order="0" transform="translate(567, 159)"><g id="spea_18fpt6e18zf6rs-stroke" fill="none" stroke-linecap="round" stroke-linejoin="round" stroke-miterlimit="4" stroke="#43dd93" stroke-width="2"><g><path d="M 23.881001 24.625C 23.881001 26.903175 25.727825 28.75 28.006001 28.75C 30.284176 28.75 32.131001 26.903175 32.131001 24.625C 32.131001 22.346827 30.284176 20.5 28.006001 20.5C 25.727825 20.5 23.881001 22.346827 23.881001 24.625ZM 33.056499 34.056999C 32.41687 31.809862 30.369215 30.255817 28.032843 30.24435C 25.696472 30.232883 23.633663 31.76675 22.972 34.0075M 19.756001 37.032997L 36.256001 37.032997M 23.506001 45.25L 21.256001 37.032997L 34.756001 37.032997L 32.506001 45.25M 28 40.407997C 27.792892 40.407997 27.625 40.575893 27.625 40.782997C 27.625 40.990105 27.792892 41.157997 28 41.157997C 28.207108 41.157997 28.375 40.990105 28.375 40.782997C 28.375 40.575893 28.207108 40.407997 28 40.407997L 28 40.407997M 18.25 33.25L 12.2605 33.25C 11.432073 33.25 10.7605 32.578426 10.7605 31.75L 10.7605 12.25C 10.7605 11.421573 11.432073 10.75 12.2605 10.75L 43.75 10.75C 44.578426 10.75 45.25 11.421573 45.25 12.25L 45.25 31.75C 45.25 32.578426 44.578426 33.25 43.75 33.25L 37.75 33.25"></path></g></g></g><g id="g-root-tx_presenta_1uqk6ba18znmdg-stroke" data-item-order="0" transform="translate(627, 165)"></g><g id="g-root-tx_exclusiv_zmkp9y18zno5c-stroke" data-item-order="0" transform="translate(3, 183)"></g><g id="g-root-math_qvxek618zp2q6-stroke" data-item-order="0" transform="translate(147, 195)"><g id="math_qvxek618zp2q6-stroke" fill="none" stroke-linecap="round" stroke-linejoin="round" stroke-miterlimit="4" stroke="#de8431" stroke-width="2"><g><path d="M 46.5 42.900002C 46.5 42.900002 45.5 40.099998 37.900002 39.700001C 37.099998 39.700001 36.5 40.099998 36.5 40.700001L 36.5 52.299999C 36.5 52.900002 37.099998 53.299999 37.700001 53.299999C 45.5 53.5 46.5 56.5 46.5 56.5L 46.5 42.900002ZM 46.5 42.900002C 46.5 42.900002 47.5 40.099998 55.099998 39.700001C 55.900002 39.700001 56.5 40.099998 56.5 40.700001L 56.5 52.299999C 56.5 52.900002 55.900002 53.299999 55.299999 53.299999C 47.5 53.5 46.5 56.5 46.5 56.5M 44.857601 22.15308L 35.146797 22.15308M 40.002197 18.04458C 40.414803 18.04458 40.749199 17.71014 40.749199 17.297581C 40.749199 16.88504 40.414803 16.5506 40.002197 16.5506M 40.002399 18.04458C 39.589798 18.04458 39.255402 17.71014 39.255402 17.297581C 39.255402 16.88504 39.589798 16.5506 40.002399 16.5506M 40.002197 27.942221C 40.414803 27.942221 40.749199 27.60778 40.749199 27.19524C 40.749199 26.782681 40.414803 26.44824 40.002197 26.44824M 40.002399 27.942221C 39.589798 27.942221 39.255402 27.60778 39.255402 27.19524C 39.255402 26.782681 39.589798 26.44824 40.002399 26.44824M 10 10M 17.2777 34.838402L 21.57292 37.639603L 23.813881 29.23596L 32.217598 29.23596M 52.700001 34.299999L 52.700001 14.3C 52.700001 12.7 51.5 11.5 49.900002 11.5L 14.29996 11.5C 12.69996 11.5 11.499969 12.7 11.499969 14.3L 11.499969 41.700001C 11.499969 43.299999 12.69996 44.5 14.29996 44.5L 29.8999 44.5M 10 10M 27.299919 44.5L 25.89994 52.5M 29.3999 52.5L 23.89996 52.5"></path></g></g></g><g id="g-root-mult_1d3nhfa1ancsg1-stroke" data-item-order="0" transform="translate(567, 243)"><g id="mult_1d3nhfa1ancsg1-stroke" fill="none" stroke-linecap="round" stroke-linejoin="round" stroke-miterlimit="4" stroke="#fb6762" stroke-width="2"><g><path d="M 18.25 35.5L 15.25 35.5C 14.421573 35.5 13.75 34.828426 13.75 34L 13.75 13C 13.75 12.171573 14.421573 11.5 15.25 11.5L 31.75 11.5C 32.578426 11.5 33.25 12.171573 33.25 13L 33.25 16M 22.75 40L 19.75 40C 18.921574 40 18.25 39.328426 18.25 38.5L 18.25 17.5C 18.25 16.671574 18.921574 16 19.75 16L 36.25 16C 37.078426 16 37.75 16.671574 37.75 17.5L 37.75 20.5M 24.25 20.5L 40.75 20.5C 40.75 20.5 42.25 20.5 42.25 22L 42.25 43C 42.25 43 42.25 44.5 40.75 44.5L 24.25 44.5C 24.25 44.5 22.75 44.5 22.75 43L 22.75 22C 22.75 22 22.75 20.5 24.25 20.5M 25.75 26.5L 26.299 27.598C 26.403198 27.807259 26.601786 27.953541 26.832529 27.991009C 27.063274 28.028475 27.297943 27.952539 27.462999 27.786999L 30.25 25M 33.25 26.5L 39.25 26.5M 25.75 34L 26.299 35.098C 26.403198 35.307259 26.601786 35.453541 26.832529 35.491009C 27.063274 35.528473 27.297943 35.452538 27.462999 35.286999L 30.25 32.5M 33.25 34L 39.25 34M 33.25 38.5L 36.25 38.5"></path></g></g></g><g id="g-root-tx_neweleme_8znf1y1adog0f-stroke" data-item-order="0" transform="translate(627, 249)"></g><g id="g-root-3_mg3wfq18zw1l0-stroke" data-item-order="0" transform="translate(567, 327)"><g id="3_mg3wfq18zw1l0-stroke" fill="none" stroke-linecap="round" stroke-linejoin="round" stroke-miterlimit="4" stroke="#f366bb" stroke-width="2"><g><path d="M 18.901001 21.515499L 18.901001 23.776001C 18.869795 25.572279 19.810234 27.245625 21.360865 28.152893C 22.911495 29.060162 24.831003 29.060162 26.381636 28.152893C 27.932266 27.245625 28.872705 25.572279 28.841499 23.776001L 28.841499 21.515499M 28.841499 16.9105L 28.841499 21.515499L 23.738501 23.160999L 18.901001 21.515499L 18.901001 17.009501M 34.504002 14.7865L 23.738501 10.75L 12.9715 14.7865L 23.738501 18.824499L 34.504002 14.7865ZM 12.9715 14.7865L 12.9715 20.17M 13.0225 20.2075L 10.7725 24.7075L 15.2725 24.7075L 13.0225 20.2075ZM 36.227501 27.25L 43.727501 27.25C 43.727501 27.25 45.227501 27.25 45.227501 28.75L 45.227501 43.75C 45.227501 43.75 45.227501 45.25 43.727501 45.25L 36.227501 45.25C 36.227501 45.25 34.727501 45.25 34.727501 43.75L 34.727501 28.75C 34.727501 28.75 34.727501 27.25 36.227501 27.25M 45.227501 40.75L 34.727501 40.75M 31.327 39.25C 31.365143 36.561111 29.952486 34.059994 27.629992 32.704418C 25.307495 31.348843 22.435005 31.348843 20.112509 32.704418C 17.790012 34.059994 16.377357 36.561111 16.415501 39.25"></path></g></g></g><g id="g-root-tx_othermat_90a5me18zno5e-stroke" data-item-order="0" transform="translate(627, 321)"></g></g></g></svg>