<?xml version="1.0" encoding="utf-8" standalone="yes"?>
<!DOCTYPE svg PUBLIC "-//W3C//DTD SVG 1.1//EN" "http://www.w3.org/Graphics/SVG/1.1/DTD/svg11.dtd">
<svg width="782" height="530" viewBox="0 0 782 530" style="fill:none;stroke:none;fill-rule:evenodd;clip-rule:evenodd;stroke-linecap:round;stroke-linejoin:round;stroke-miterlimit:1.5;" version="1.1" xmlns="http://www.w3.org/2000/svg" xmlns:xlink="http://www.w3.org/1999/xlink"><style class="text-font-style fontImports" data-font-family="Shantell Sans">@import url('https://fonts.googleapis.com/css2?family=Shantell+Sans:wght@300..800&amp;display=block');</style><g id="items" style="isolation: isolate"><g id="blend" style="mix-blend-mode: normal"><g id="g-root-ro_1uo26o417vnthh-fill" data-item-order="999970768" transform="translate(321, 168)"><g id="ro_1uo26o417vnthh-fill" stroke="none" fill="#545454"><g><path d="M 34 10L 154 10C 154 10 178 10 178 34L 178 160C 178 160 178 184 154 184L 34 184C 34 184 10 184 10 160L 10 34C 10 34 10 10 34 10"></path></g></g></g><g id="g-root-ro_qn5iys185nh1h-fill" data-item-order="999987040" transform="translate(489, 393)"><g id="ro_qn5iys185nh1h-fill" stroke="none" fill="#54502f"><g><path d="M 22 10L 238 10C 238 10 250 10 250 22L 250 52C 250 52 250 64 238 64L 22 64C 22 64 10 64 10 52L 10 22C 10 22 10 10 22 10"></path></g></g></g><g id="g-root-ro_m7d93o17lint6-fill" data-item-order="999987040" transform="translate(75, 375)"><g id="ro_m7d93o17lint6-fill" stroke="none" fill="#3b5649"><g><path d="M 22 10L 238 10C 238 10 250 10 250 22L 250 52C 250 52 250 64 238 64L 22 64C 22 64 10 64 10 52L 10 22C 10 22 10 10 22 10"></path></g></g></g><g id="g-root-ro_9048k15dkhdw-fill" data-item-order="999987688" transform="translate(411, 24)"><g id="ro_9048k15dkhdw-fill" stroke="none" fill="#68403f"><g><path d="M 22 10L 226 10C 226 10 238 10 238 22L 238 52C 238 52 238 64 226 64L 22 64C 22 64 10 64 10 52L 10 22C 10 22 10 10 22 10"></path></g></g></g><g id="g-root-ro_18k34n817vxq8a-fill" data-item-order="999987688" transform="translate(525, 177)"><g id="ro_18k34n817vxq8a-fill" stroke="none" fill="#69425a"><g><path d="M 22 10L 226 10C 226 10 238 10 238 22L 238 52C 238 52 238 64 226 64L 22 64C 22 64 10 64 10 52L 10 22C 10 22 10 10 22 10"></path></g></g></g><g id="g-root-ro_6h938185yosp-fill" data-item-order="999987688" transform="translate(57, 123)"><g id="ro_6h938185yosp-fill" stroke="none" fill="#3e4e69"><g><path d="M 22 10L 226 10C 226 10 238 10 238 22L 238 52C 238 52 238 64 226 64L 22 64C 22 64 10 64 10 52L 10 22C 10 22 10 10 22 10"></path></g></g></g><g id="g-root-cu_9048k15dkhe0-fill" data-item-order="1000000000" transform="translate(489, 78)"></g><g id="g-root-tx_darkmode_9048k15dkhe3-fill" data-item-order="1000000000" transform="translate(507, 97)"><g id="tx_darkmode_9048k15dkhe3-fill" stroke="none" fill="#f4f4f4"><g><text style="font: 20px &quot;Shantell Sans&quot;, cursive; white-space: pre;" font-size="20px" font-family="'Shantell Sans', cursive"><tspan x="15.13" y="35.6" dominant-baseline="ideographic">PDF Foramts</tspan></text></g></g></g><g id="g-root-cu_1lw4sp0185yq6i-fill" data-item-order="1000000000" transform="translate(285, 150)"></g><g id="g-root-cu_qun804185ynta-fill" data-item-order="1000000000" transform="translate(237, 177)"></g><g id="g-root-cu_vagq4k185ynsw-fill" data-item-order="1000000000" transform="translate(243.33334350585938, 177)"></g><g id="g-root-cu_zpnr5w185yq6b-fill" data-item-order="1000000000" transform="translate(243.54544067382812, 177)"></g><g id="g-root-cu_metpvo185yolm-fill" data-item-order="1000000000" transform="translate(244, 177)"></g><g id="g-root-tx_pythonba_hriipw185nhu6-fill" data-item-order="1000000000" transform="translate(93, 189)"><g id="tx_pythonba_hriipw185nhu6-fill" stroke="none" fill="#f4f4f4"><g><text style="font: 20px &quot;Shantell Sans&quot;, cursive; white-space: pre;" font-size="20px" font-family="'Shantell Sans', cursive"><tspan x="15.58" y="35.6" dominant-baseline="ideographic">Python Basics</tspan></text></g></g></g><g id="g-root-tx_searchba_143m9us14tqvwt-fill" data-item-order="1000000000" transform="translate(123, 477)"><g id="tx_searchba_143m9us14tqvwt-fill" stroke="none" fill="#f4f4f4"><g><text style="font: 20px &quot;Shantell Sans&quot;, cursive; white-space: pre;" font-size="20px" font-family="'Shantell Sans', cursive"><tspan x="15.93" y="35.6" dominant-baseline="ideographic">Complete Topic</tspan></text></g></g></g><g id="g-root-cu_18lares185yolp-fill" data-item-order="1000000000" transform="translate(489, 204)"></g><g id="g-root-cu_8cock185yolg-fill" data-item-order="1000000000" transform="translate(482.3333740234375, 447)"></g><g id="g-root-tx_mathemat_4gohfo185ng9b-fill" data-item-order="1000000000" transform="translate(99, 225)"><g id="tx_mathemat_4gohfo185ng9b-fill" stroke="none" fill="#f4f4f4"><g><text style="font: 20px &quot;Shantell Sans&quot;, cursive; white-space: pre;" font-size="20px" font-family="'Shantell Sans', cursive"><tspan x="13.08" y="35.6" dominant-baseline="ideographic">Mathematics</tspan></text></g></g></g><g id="g-root-cu_metpvo185yolo-fill" data-item-order="1000000000" transform="translate(552, 225)"></g><g id="g-root-cu_93d7ic185yq6n-fill" data-item-order="1000000000" transform="translate(552, 225)"></g><g id="g-root-tx_darkmode_13zuzic185nhmq-fill" data-item-order="1000000000" transform="translate(573, 243)"><g id="tx_darkmode_13zuzic185nhmq-fill" stroke="none" fill="#f4f4f4"><g><text style="font: 20px &quot;Shantell Sans&quot;, cursive; white-space: pre;" font-size="20px" font-family="'Shantell Sans', cursive"><tspan x="16.52" y="35.6" dominant-baseline="ideographic">Dark Mode</tspan></text></g></g></g><g id="g-root-tx_engineer_1um5j5w185nhmo-fill" data-item-order="1000000000" transform="translate(9, 261)"><g id="tx_engineer_1um5j5w185nhmo-fill" stroke="none" fill="#f4f4f4"><g><text style="font: 20px &quot;Shantell Sans&quot;, cursive; white-space: pre;" font-size="20px" font-family="'Shantell Sans', cursive"><tspan x="12.6" y="35.6" dominant-baseline="ideographic">Engineering Mechanics</tspan></text></g></g></g><g id="g-root-tx_searchba_qn6r8417linsw-fill" data-item-order="1000000000" transform="translate(117, 444)"><g id="tx_searchba_qn6r8417linsw-fill" stroke="none" fill="#f4f4f4"><g><text style="font: 20px &quot;Shantell Sans&quot;, cursive; white-space: pre;" font-size="20px" font-family="'Shantell Sans', cursive"><tspan x="14.82" y="35.6" dominant-baseline="ideographic">Every weekend</tspan></text></g></g></g><g id="g-root-tx_gridlayo_v4ugck185nf9n-fill" data-item-order="1000000000" transform="translate(573, 279)"><g id="tx_gridlayo_v4ugck185nf9n-fill" stroke="none" fill="#f4f4f4"><g><text style="font: 20px &quot;Shantell Sans&quot;, cursive; white-space: pre;" font-size="20px" font-family="'Shantell Sans', cursive"><tspan x="12.34" y="35.6" dominant-baseline="ideographic">Grid Layout</tspan></text></g></g></g><g id="g-root-tx_english_1hbbhvo185ng1t-fill" data-item-order="1000000000" transform="translate(153, 297)"><g id="tx_english_1hbbhvo185ng1t-fill" stroke="none" fill="#f4f4f4"><g><text style="font: 20px &quot;Shantell Sans&quot;, cursive; white-space: pre;" font-size="20px" font-family="'Shantell Sans', cursive"><tspan x="17.21" y="35.6" dominant-baseline="ideographic">English</tspan></text></g></g></g><g id="g-root-tx_searchba_v4ugck185nf9o-fill" data-item-order="1000000000" transform="translate(501, 477)"><g id="tx_searchba_v4ugck185nf9o-fill" stroke="none" fill="#f4f4f4"><g><text style="font: 20px &quot;Shantell Sans&quot;, cursive; white-space: pre;" font-size="20px" font-family="'Shantell Sans', cursive"><tspan x="17.65" y="35.6" dominant-baseline="ideographic">Search Bar</tspan></text></g></g></g><g id="g-root-cu_145h9ac185ype0-fill" data-item-order="1000000000" transform="translate(405, 330)"></g><g id="g-root-cu_zmk9dg17vl2xb-fill" data-item-order="1000000000" transform="translate(369, 51)"></g><g id="g-root-cu_1d1rcro17vpb0q-fill" data-item-order="1000000002" transform="translate(195, 342)"></g><g id="g-root-cu_m7d93o17lint9-fill" data-item-order="1000000002" transform="translate(84.06065368652344, 428.61090087890625)"></g><g id="g-root-cu_dhyq90171jgn8-fill" data-item-order="1000000002" transform="translate(84.06065368652344, 428.61090087890625)"></g><g id="g-root-tx_notecate_qsrsqs185yosn-fill" data-item-order="2000000000" transform="translate(69, 138)"><g id="tx_notecate_qsrsqs185yosn-fill" stroke="none" fill="#4f91fc"><g><text style="font: 20px &quot;Shantell Sans&quot;, cursive; white-space: pre;" font-size="20px" font-family="'Shantell Sans', cursive"><tspan x="16.1" y="35.6" dominant-baseline="ideographic">Note Categories</tspan></text></g></g></g><g id="g-root-1_mcyamc185ypkw-fill" data-item-order="2000000000" transform="translate(243, 135)"></g><g id="g-root-tx_designfe_9048k15dkhdy-fill" data-item-order="2000000000" transform="translate(471, 39)"><g id="tx_designfe_9048k15dkhdy-fill" stroke="none" fill="#fb6762"><g><text style="font: 20px &quot;Shantell Sans&quot;, cursive; white-space: pre;" font-size="20px" font-family="'Shantell Sans', cursive"><tspan x="15.83" y="35.6" dominant-baseline="ideographic">Quality Notes</tspan></text></g></g></g><g id="g-root-2_1hfq4w417vxpfl-fill" data-item-order="2000000000" transform="translate(537, 189)"></g><g id="g-root-dash_ddlo3o17vnuh8-fill" data-item-order="2000000000" transform="translate(381, 204)"></g><g id="g-root-tx_designfe_1ur6n9g17vxnuo-fill" data-item-order="2000000000" transform="translate(573, 192)"><g id="tx_designfe_1ur6n9g17vxnuo-fill" stroke="none" fill="#f366bb"><g><text style="font: 20px &quot;Shantell Sans&quot;, cursive; white-space: pre;" font-size="20px" font-family="'Shantell Sans', cursive"><tspan x="17.65" y="35.6" dominant-baseline="ideographic">Design Features</tspan></text></g></g></g><g id="g-root-tx_uiconcep_13zw7r817vnuh7-fill" data-item-order="2000000000" transform="translate(345, 258)"><g id="tx_uiconcep_13zw7r817vnuh7-fill" stroke="none" fill="#b7b7b7"><g><text style="font: 20px &quot;Shantell Sans&quot;, cursive; white-space: pre;" font-size="20px" font-family="'Shantell Sans', cursive"><tspan x="15.73" y="35.6" dominant-baseline="ideographic">Glimpse of </tspan><tspan x="38.54" y="59.6" dominant-baseline="ideographic">Notes</tspan></text></g></g></g><g id="g-root-1_m7d93o17lint7-fill" data-item-order="2000000000" transform="translate(117, 387)"></g><g id="g-root-tx_userinte_m7d93o17lint8-fill" data-item-order="2000000000" transform="translate(153, 390)"><g id="tx_userinte_m7d93o17lint8-fill" stroke="none" fill="#43dd93"><g><text style="font: 20px &quot;Shantell Sans&quot;, cursive; white-space: pre;" font-size="20px" font-family="'Shantell Sans', cursive"><tspan x="13.15" y="35.6" dominant-baseline="ideographic">Latest Note</tspan></text></g></g></g><g id="g-root-1_13ym1c4185nfgk-fill" data-item-order="2000000000" transform="translate(501, 405)"></g><g id="g-root-tx_userinte_1uuw6dg185m0w3-fill" data-item-order="2000000000" transform="translate(537, 408)"><g id="tx_userinte_1uuw6dg185m0w3-fill" stroke="none" fill="#ffe711"><g><text style="font: 20px &quot;Shantell Sans&quot;, cursive; white-space: pre;" font-size="20px" font-family="'Shantell Sans', cursive"><tspan x="15.36" y="35.6" dominant-baseline="ideographic">User Interactions</tspan></text></g></g></g><g id="g-root-2_9048k15dkhdx-fill" data-item-order="2000000000" transform="translate(435, 36)"></g><g id="g-root-ro_1uo26o417vnthh-stroke" data-item-order="999970768" transform="translate(321, 168)"><g id="ro_1uo26o417vnthh-stroke" fill="none" stroke-linecap="round" stroke-linejoin="round" stroke-miterlimit="4" stroke="#f4f4f4" stroke-width="2"><g><path d="M 34 10L 154 10C 154 10 178 10 178 34L 178 160C 178 160 178 184 154 184L 34 184C 34 184 10 184 10 160L 10 34C 10 34 10 10 34 10"></path></g></g></g><g id="g-root-ro_qn5iys185nh1h-stroke" data-item-order="999987040" transform="translate(489, 393)"><g id="ro_qn5iys185nh1h-stroke" fill="none" stroke-linecap="round" stroke-linejoin="round" stroke-miterlimit="4" stroke="#ffe711" stroke-width="2"><g><path d="M 22 10L 238 10C 238 10 250 10 250 22L 250 52C 250 52 250 64 238 64L 22 64C 22 64 10 64 10 52L 10 22C 10 22 10 10 22 10"></path></g></g></g><g id="g-root-ro_m7d93o17lint6-stroke" data-item-order="999987040" transform="translate(75, 375)"><g id="ro_m7d93o17lint6-stroke" fill="none" stroke-linecap="round" stroke-linejoin="round" stroke-miterlimit="4" stroke="#43dd93" stroke-width="2"><g><path d="M 22 10L 238 10C 238 10 250 10 250 22L 250 52C 250 52 250 64 238 64L 22 64C 22 64 10 64 10 52L 10 22C 10 22 10 10 22 10"></path></g></g></g><g id="g-root-ro_9048k15dkhdw-stroke" data-item-order="999987688" transform="translate(411, 24)"><g id="ro_9048k15dkhdw-stroke" fill="none" stroke-linecap="round" stroke-linejoin="round" stroke-miterlimit="4" stroke="#fb6762" stroke-width="2"><g><path d="M 22 10L 226 10C 226 10 238 10 238 22L 238 52C 238 52 238 64 226 64L 22 64C 22 64 10 64 10 52L 10 22C 10 22 10 10 22 10"></path></g></g></g><g id="g-root-ro_18k34n817vxq8a-stroke" data-item-order="999987688" transform="translate(525, 177)"><g id="ro_18k34n817vxq8a-stroke" fill="none" stroke-linecap="round" stroke-linejoin="round" stroke-miterlimit="4" stroke="#f366bb" stroke-width="2"><g><path d="M 22 10L 226 10C 226 10 238 10 238 22L 238 52C 238 52 238 64 226 64L 22 64C 22 64 10 64 10 52L 10 22C 10 22 10 10 22 10"></path></g></g></g><g id="g-root-ro_6h938185yosp-stroke" data-item-order="999987688" transform="translate(57, 123)"><g id="ro_6h938185yosp-stroke" fill="none" stroke-linecap="round" stroke-linejoin="round" stroke-miterlimit="4" stroke="#4f91fc" stroke-width="2"><g><path d="M 22 10L 226 10C 226 10 238 10 238 22L 238 52C 238 52 238 64 226 64L 22 64C 22 64 10 64 10 52L 10 22C 10 22 10 10 22 10"></path></g></g></g><g id="g-root-cu_9048k15dkhe0-stroke" data-item-order="1000000000" transform="translate(489, 78)"><g id="cu_9048k15dkhe0-stroke" fill="none" stroke-linecap="round" stroke-linejoin="round" stroke-miterlimit="4" stroke="#b7b7b7" stroke-width="2" stroke-dasharray="5.0, 7.0"><g><path d="M 10 10L 10 13.9L 10 30.6C 10 36.34376 14.656238 40.999999 20.399999 40.999999L 20.5 41L 22 41"></path></g></g></g><g id="g-root-tx_darkmode_9048k15dkhe3-stroke" data-item-order="1000000000" transform="translate(507, 97)"></g><g id="g-root-cu_1lw4sp0185yq6i-stroke" data-item-order="1000000000" transform="translate(285, 150)"><g id="cu_1lw4sp0185yq6i-stroke" fill="none" stroke-linecap="round" stroke-linejoin="round" stroke-miterlimit="4" stroke="#b7b7b7" stroke-width="2" stroke-dasharray="5.0, 7.0"><g><path d="M 46 86L 43.6 86L 43.5 86C 34.387297 86.000002 26.999996 78.612699 26.999996 69.500001L 27 69.4L 27 66.9C 27.018634 64.022289 27.119091 60.84115 27.299999 57.399999L 28 48L 28.7 38.6C 28.880857 35.158622 28.981313 31.977505 29 29.099999L 29 29L 29 26.5C 29.000001 17.387302 21.612699 10 12.5 10L 12.4 10L 10 10"></path></g></g></g><g id="g-root-cu_qun804185ynta-stroke" data-item-order="1000000000" transform="translate(237, 177)"><g id="cu_qun804185ynta-stroke" fill="none" stroke-linecap="round" stroke-linejoin="round" stroke-miterlimit="4" stroke="#b7b7b7" stroke-width="2" stroke-dasharray="5.0, 7.0"><g><path d="M 32.7 10L 32.7 40L 32.7 70L 21.3 70L 10 70"></path></g></g></g><g id="g-root-cu_vagq4k185ynsw-stroke" data-item-order="1000000000" transform="translate(243.33334350585938, 177)"><g id="cu_vagq4k185ynsw-stroke" fill="none" stroke-linecap="round" stroke-linejoin="round" stroke-miterlimit="4" stroke="#b7b7b7" stroke-width="2" stroke-dasharray="5.0, 7.0"><g><path d="M 26.3 10L 26.3 58L 26.3 106L 18.2 106L 10 106"></path></g></g></g><g id="g-root-cu_zpnr5w185yq6b-stroke" data-item-order="1000000000" transform="translate(243.54544067382812, 177)"><g id="cu_zpnr5w185yq6b-stroke" fill="none" stroke-linecap="round" stroke-linejoin="round" stroke-miterlimit="4" stroke="#b7b7b7" stroke-width="2" stroke-dasharray="5.0, 7.0"><g><path d="M 26.1 10L 26.1 22L 26.1 34L 18.1 34L 10 34"></path></g></g></g><g id="g-root-cu_metpvo185yolm-stroke" data-item-order="1000000000" transform="translate(244, 177)"><g id="cu_metpvo185yolm-stroke" fill="none" stroke-linecap="round" stroke-linejoin="round" stroke-miterlimit="4" stroke="#b7b7b7" stroke-width="2" stroke-dasharray="5.0, 7.0"><g><path d="M 25.7 10L 25.7 26.5L 25.7 130C 25.700005 136.627421 20.327422 142.000005 13.700005 142.000005L 13.6 142L 10 142"></path></g></g></g><g id="g-root-tx_pythonba_hriipw185nhu6-stroke" data-item-order="1000000000" transform="translate(93, 189)"></g><g id="g-root-tx_searchba_143m9us14tqvwt-stroke" data-item-order="1000000000" transform="translate(123, 477)"></g><g id="g-root-cu_18lares185yolp-stroke" data-item-order="1000000000" transform="translate(489, 204)"><g id="cu_18lares185yolp-stroke" fill="none" stroke-linecap="round" stroke-linejoin="round" stroke-miterlimit="4" stroke="#b7b7b7" stroke-width="2" stroke-dasharray="5.0, 7.0"><g><path d="M 10 86L 12.6 86L 12.7 86C 22.806809 85.999998 30.999998 77.80681 30.999998 67.699999L 31 67.6L 31 28.3C 31 18.193189 39.193189 10 49.299999 10L 49.4 10L 52 10"></path></g></g></g><g id="g-root-cu_8cock185yolg-stroke" data-item-order="1000000000" transform="translate(482.3333740234375, 447)"><g id="cu_8cock185yolg-stroke" fill="none" stroke-linecap="round" stroke-linejoin="round" stroke-miterlimit="4" stroke="#b7b7b7" stroke-width="2" stroke-dasharray="5.0, 7.0"><g><path d="M 43.3 10L 43.3 11.3L 43.3 11.4C 43.299999 16.425791 39.22579 20.5 34.199999 20.5L 34.1 20.5L 22 20.5C 15.372583 20.5 9.999999 25.872583 10 32.499999L 10 32.6L 10 41.6C 10.000001 47.343761 14.656239 52 20.400001 52L 20.5 52L 22 52"></path></g></g></g><g id="g-root-tx_mathemat_4gohfo185ng9b-stroke" data-item-order="1000000000" transform="translate(99, 225)"></g><g id="g-root-cu_metpvo185yolo-stroke" data-item-order="1000000000" transform="translate(552, 225)"><g id="cu_metpvo185yolo-stroke" fill="none" stroke-linecap="round" stroke-linejoin="round" stroke-miterlimit="4" stroke="#b7b7b7" stroke-width="2" stroke-dasharray="5.0, 7.0"><g><path d="M 10 10L 10 25L 10 40L 17.5 40L 25 40"></path></g></g></g><g id="g-root-cu_93d7ic185yq6n-stroke" data-item-order="1000000000" transform="translate(552, 225)"><g id="cu_93d7ic185yq6n-stroke" fill="none" stroke-linecap="round" stroke-linejoin="round" stroke-miterlimit="4" stroke="#b7b7b7" stroke-width="2" stroke-dasharray="5.0, 7.0"><g><path d="M 10 10L 10 18.3L 10 64C 10.000001 70.627416 15.372584 75.999999 22.000001 75.999998L 22.1 76L 25 76"></path></g></g></g><g id="g-root-tx_darkmode_13zuzic185nhmq-stroke" data-item-order="1000000000" transform="translate(573, 243)"></g><g id="g-root-tx_engineer_1um5j5w185nhmo-stroke" data-item-order="1000000000" transform="translate(9, 261)"></g><g id="g-root-tx_searchba_qn6r8417linsw-stroke" data-item-order="1000000000" transform="translate(117, 444)"></g><g id="g-root-tx_gridlayo_v4ugck185nf9n-stroke" data-item-order="1000000000" transform="translate(573, 279)"></g><g id="g-root-tx_english_1hbbhvo185ng1t-stroke" data-item-order="1000000000" transform="translate(153, 297)"></g><g id="g-root-tx_searchba_v4ugck185nf9o-stroke" data-item-order="1000000000" transform="translate(501, 477)"></g><g id="g-root-cu_145h9ac185ype0-stroke" data-item-order="1000000000" transform="translate(405, 330)"><g id="cu_145h9ac185ype0-stroke" fill="none" stroke-linecap="round" stroke-linejoin="round" stroke-miterlimit="4" stroke="#b7b7b7" stroke-width="2" stroke-dasharray="5.0, 7.0"><g><path d="M 10 22L 10 25L 10 25.1C 10 36.642751 19.357249 46 30.900001 45.999999L 31 46L 94 46C 98.861779 46.000881 104.10019 44.254744 109.000003 41.000006C 111.943384 39.045736 115.203248 34.337045 118.000004 28.000001C 120.796761 21.662958 124.056625 16.954267 127.000005 15.000002C 131.899817 11.745268 137.138229 9.999131 142.000005 10.000008L 142.1 10L 190 10C 203.25483 10.000003 213.999995 20.74517 213.999995 34.000003L 214 34.1L 214 73"></path></g></g></g><g id="g-root-cu_zmk9dg17vl2xb-stroke" data-item-order="1000000000" transform="translate(369, 51)"><g id="cu_zmk9dg17vl2xb-stroke" fill="none" stroke-linecap="round" stroke-linejoin="round" stroke-miterlimit="4" stroke="#b7b7b7" stroke-width="2" stroke-dasharray="5.0, 7.0"><g><path d="M 52 10L 46.8 10L 34 10C 20.745166 10 10 20.745166 10 33.999999L 10 34.1L 10 127"></path></g></g></g><g id="g-root-cu_1d1rcro17vpb0q-stroke" data-item-order="1000000002" transform="translate(195, 342)"><g id="cu_1d1rcro17vpb0q-stroke" fill="none" stroke-linecap="round" stroke-linejoin="round" stroke-miterlimit="4" stroke="#b7b7b7" stroke-width="2" stroke-dasharray="5.0, 7.0"><g><path d="M 172 10L 172 12.1L 172 14.5C 171.999996 21.127416 166.627413 26.499999 159.999996 26.499999L 159.9 26.5L 22 26.5C 15.372582 26.499999 9.999999 31.872582 9.999999 38.499999L 10 38.6L 10 43"></path></g></g></g><g id="g-root-cu_m7d93o17lint9-stroke" data-item-order="1000000002" transform="translate(84.06065368652344, 428.61090087890625)"><g id="cu_m7d93o17lint9-stroke" fill="none" stroke-linecap="round" stroke-linejoin="round" stroke-miterlimit="4" stroke="#b7b7b7" stroke-width="2" stroke-dasharray="5.0, 7.0"><g><path d="M 10 10L 10 17.5L 10 58.4C 10.000001 65.027416 15.372584 70.399999 22.000001 70.399998L 22.1 70.4L 42.9 70.4"></path></g></g></g><g id="g-root-cu_dhyq90171jgn8-stroke" data-item-order="1000000002" transform="translate(84.06065368652344, 428.61090087890625)"><g id="cu_dhyq90171jgn8-stroke" fill="none" stroke-linecap="round" stroke-linejoin="round" stroke-miterlimit="4" stroke="#b7b7b7" stroke-width="2" stroke-dasharray="5.0, 7.0"><g><path d="M 10 10L 10 13.8L 10 28.6C 10 35.227416 15.372583 40.599999 22 40.599999L 22.1 40.6L 42.9 40.6"></path></g></g></g><g id="g-root-tx_notecate_qsrsqs185yosn-stroke" data-item-order="2000000000" transform="translate(69, 138)"></g><g id="g-root-1_mcyamc185ypkw-stroke" data-item-order="2000000000" transform="translate(243, 135)"><g id="1_mcyamc185ypkw-stroke" fill="none" stroke-linecap="round" stroke-linejoin="round" stroke-miterlimit="4" stroke="#4f91fc" stroke-width="2"><g><path d="M 29.375 26.875C 28.684643 26.875 28.125 27.434643 28.125 28.125L 28.125 34.375L 15.625 34.375C 14.934644 34.375 14.375 33.815353 14.375 33.125L 14.375 14.375C 14.375 13.684644 14.934644 13.125 15.625 13.125L 34.375 13.125C 35.065353 13.125 35.625 13.684644 35.625 14.375L 35.625 26.875ZM 35.625 26.875L 28.125 34.375M 19.375 10.625L 19.375 15.625M 24.375 10.625L 24.375 15.625M 29.375 10.625L 29.375 15.625M 14.375 36.875L 33.125 36.875M 14.375 39.375L 33.125 39.375"></path></g></g></g><g id="g-root-tx_designfe_9048k15dkhdy-stroke" data-item-order="2000000000" transform="translate(471, 39)"></g><g id="g-root-2_1hfq4w417vxpfl-stroke" data-item-order="2000000000" transform="translate(537, 189)"><g id="2_1hfq4w417vxpfl-stroke" fill="none" stroke-linecap="round" stroke-linejoin="round" stroke-miterlimit="4" stroke="#f366bb" stroke-width="2"><g><path d="M 32.5 11.071428L 36.785713 11.071428C 37.969181 11.071428 38.92857 12.030818 38.92857 13.214286L 38.92857 17.5M 11.071428 17.5L 11.071428 13.214286C 11.071428 12.030818 12.030818 11.071428 13.214286 11.071428L 17.5 11.071428M 32.5 38.92857L 36.785713 38.92857C 37.969181 38.92857 38.92857 37.969181 38.92857 36.785713L 38.92857 32.5M 11.071428 32.5L 11.071428 36.785713C 11.071428 37.969181 12.030818 38.92857 13.214286 38.92857L 17.5 38.92857M 17.5 25C 17.5 29.142136 20.857864 32.5 25 32.5C 29.142136 32.5 32.5 29.142136 32.5 25C 32.5 20.857864 29.142136 17.5 25 17.5C 20.857864 17.5 17.5 20.857864 17.5 25"></path></g></g></g><g id="g-root-dash_ddlo3o17vnuh8-stroke" data-item-order="2000000000" transform="translate(381, 204)"><g id="dash_ddlo3o17vnuh8-stroke" fill="none" stroke-linecap="round" stroke-linejoin="round" stroke-miterlimit="4" stroke="#b7b7b7" stroke-width="2"><g><path d="M 13 43L 29 43C 29 43 31 43 31 45L 31 55C 31 55 31 57 29 57L 13 57C 13 57 11 57 11 55L 11 45C 11 45 11 43 13 43M 55 57L 39 57C 39 57 37 57 37 55L 37 33C 37 33 37 31 39 31L 55 31C 55 31 57 31 57 33L 57 55C 57 55 57 57 55 57M 55 25L 39 25C 39 25 37 25 37 23L 37 13C 37 13 37 11 39 11L 55 11C 55 11 57 11 57 13L 57 23C 57 23 57 25 55 25M 13 11L 29 11C 29 11 31 11 31 13L 31 35C 31 35 31 37 29 37L 13 37C 13 37 11 37 11 35L 11 13C 11 13 11 11 13 11"></path></g></g></g><g id="g-root-tx_designfe_1ur6n9g17vxnuo-stroke" data-item-order="2000000000" transform="translate(573, 192)"></g><g id="g-root-tx_uiconcep_13zw7r817vnuh7-stroke" data-item-order="2000000000" transform="translate(345, 258)"></g><g id="g-root-1_m7d93o17lint7-stroke" data-item-order="2000000000" transform="translate(117, 387)"><g id="1_m7d93o17lint7-stroke" fill="none" stroke-linecap="round" stroke-linejoin="round" stroke-miterlimit="4" stroke="#43dd93" stroke-width="2"><g><path d="M 21.099998 29.285713C 18.61343 27.550615 17.08287 24.751204 16.964285 21.721428C 17.062948 18.668726 18.595741 15.841401 21.099998 14.092857M 16.857143 32.371426C 13.335958 29.921959 11.188355 25.944914 11.071428 21.657145C 11.226854 17.419964 13.360837 13.501052 16.835714 11.071428M 28.9 29.285713C 31.398344 27.541643 32.930386 24.723635 33.035713 21.678572C 32.923748 18.64115 31.392448 15.832445 28.9 14.092857M 33.142857 32.371426C 36.664043 29.921959 38.811646 25.944914 38.928574 21.657145C 38.813179 17.374159 36.674713 13.39931 33.164284 10.942857M 21.785713 21.785713C 21.785713 23.560915 23.2248 25 25 25C 26.775202 25 28.214285 23.560915 28.214285 21.785713C 28.214285 20.010513 26.775202 18.571428 25 18.571428C 23.2248 18.571428 21.785713 20.010513 21.785713 21.785713M 25 25L 25 38.92857"></path></g></g></g><g id="g-root-tx_userinte_m7d93o17lint8-stroke" data-item-order="2000000000" transform="translate(153, 390)"></g><g id="g-root-1_13ym1c4185nfgk-stroke" data-item-order="2000000000" transform="translate(501, 405)"><g id="1_13ym1c4185nfgk-stroke" fill="none" stroke-linecap="round" stroke-linejoin="round" stroke-miterlimit="4" stroke="#ffe711" stroke-width="2"><g><path d="M 21.25 25.623749C 21.25 27.694818 22.928932 29.373751 25 29.373751C 27.071068 29.373751 28.75 27.694818 28.75 25.623751C 28.75 23.552683 27.071068 21.873751 25 21.873751C 22.928932 21.873751 21.25 23.552683 21.25 25.623751ZM 30.625 39.375C 30.235001 35.134998 27.83375 31.875 25 31.875C 22.16625 31.875 19.764999 35.134998 19.375 39.375ZM 31.625 31.625C 35.28952 27.965042 35.291981 22.026999 31.630501 18.364C 27.969021 14.701002 22.030979 14.701002 18.369499 18.364C 14.708021 22.026999 14.710484 27.965042 18.375 31.625002M 35.165001 35.16375C 40.778511 29.549864 40.778309 20.448292 35.164547 14.834658C 29.550785 9.221022 20.449215 9.221022 14.835454 14.834658C 9.221693 20.448292 9.22149 29.549864 14.835 35.16375"></path></g></g></g><g id="g-root-tx_userinte_1uuw6dg185m0w3-stroke" data-item-order="2000000000" transform="translate(537, 408)"></g><g id="g-root-2_9048k15dkhdx-stroke" data-item-order="2000000000" transform="translate(435, 36)"><g id="2_9048k15dkhdx-stroke" fill="none" stroke-linecap="round" stroke-linejoin="round" stroke-miterlimit="4" stroke="#fb6762" stroke-width="2"><g><path d="M 32.5 11.071428L 36.785713 11.071428C 37.969181 11.071428 38.92857 12.030818 38.92857 13.214286L 38.92857 17.5M 11.071428 17.5L 11.071428 13.214286C 11.071428 12.030818 12.030818 11.071428 13.214286 11.071428L 17.5 11.071428M 32.5 38.92857L 36.785713 38.92857C 37.969181 38.92857 38.92857 37.969181 38.92857 36.785713L 38.92857 32.5M 11.071428 32.5L 11.071428 36.785713C 11.071428 37.969181 12.030818 38.92857 13.214286 38.92857L 17.5 38.92857M 17.5 25C 17.5 29.142136 20.857864 32.5 25 32.5C 29.142136 32.5 32.5 29.142136 32.5 25C 32.5 20.857864 29.142136 17.5 25 17.5C 20.857864 17.5 17.5 20.857864 17.5 25"></path></g></g></g></g></g></svg>